<?xml version="1.0" encoding="UTF-8"?>
<svg id="Layer_1" data-name="Layer 1" xmlns="http://www.w3.org/2000/svg" viewBox="0 0 675.27 493.05">
  <defs>
    <style>
      .cls-1 {
        stroke: #000;
        stroke-width: .75px;
      }

      .cls-1, .cls-2, .cls-3, .cls-4 {
        stroke-miterlimit: 10;
      }

      .cls-2 {
        fill: none;
        stroke-width: 4px;
      }

      .cls-2, .cls-3, .cls-4 {
        stroke: #8c6239;
      }

      .cls-3 {
        stroke-width: .5px;
      }

      .cls-3, .cls-4 {
        fill: #8c6239;
      }

      .cls-4 {
        stroke-width: 2px;
      }
    </style>
  </defs>
  <g>
    <path class="cls-4" d="M306.42,9.18h-23.87l-2.41,16.07c1.44-.19,2.79-.39,5.1-.39,4.81,0,9.62,1.06,13.48,3.37,4.91,2.79,8.95,8.18,8.95,16.07,0,12.22-9.72,21.37-23.29,21.37-6.83,0-12.61-1.92-15.59-3.85l2.12-6.45c2.6,1.54,7.7,3.47,13.38,3.47,7.99,0,14.82-5.2,14.82-13.57-.1-8.09-5.49-13.86-18-13.86-3.56,0-6.35,.38-8.66,.67l4.04-30.03h29.93v7.12Z"/>
    <path class="cls-4" d="M360.03,32.67c0,21.27-7.89,33.01-21.75,33.01-12.22,0-20.5-11.45-20.69-32.15,0-20.98,9.05-32.53,21.75-32.53s20.69,11.74,20.69,31.67Zm-33.98,.96c0,16.27,5,25.51,12.71,25.51,8.66,0,12.8-10.11,12.8-26.08s-3.95-25.51-12.71-25.51c-7.41,0-12.8,9.05-12.8,26.08Z"/>
    <path class="cls-4" d="M369.84,54.9c2.41,1.54,7.99,3.95,13.86,3.95,10.88,0,14.25-6.93,14.15-12.13-.1-8.76-7.99-12.51-16.17-12.51h-4.72v-6.35h4.72c6.16,0,13.96-3.18,13.96-10.59,0-5.01-3.18-9.43-10.97-9.43-5,0-9.82,2.21-12.51,4.14l-2.21-6.16c3.27-2.41,9.62-4.81,16.36-4.81,12.32,0,17.9,7.32,17.9,14.92,0,6.45-3.85,11.94-11.55,14.73v.19c7.7,1.54,13.96,7.32,13.96,16.07,0,10.01-7.8,18.77-22.81,18.77-7.03,0-13.19-2.21-16.27-4.23l2.31-6.55Z"/>
  </g>
  <g>
    <path d="M0,171.11c1.1-.74,2.12-1.61,3.08-2.62,.95-1.01,1.77-2.18,2.46-3.52,.68-1.34,1.2-2.87,1.54-4.58s.46-3.65,.35-5.81h1.62c.04,1.13,0,2.22-.08,3.25-.09,1.04-.23,2.03-.43,2.98,.67,1.91,1.63,3.7,2.9,5.37,1.27,1.67,2.77,3.08,4.5,4.21l-1.11,1.19c-1.44-1.03-2.75-2.26-3.93-3.7-1.18-1.44-2.16-3.1-2.93-4.97-.63,1.98-1.52,3.73-2.67,5.25-1.15,1.52-2.51,2.85-4.08,3.98l-1.21-1.05Zm19.3-8.32h-5.91v-1.35h5.91v-8.42h1.51v24.54h-1.51v-14.77Z"/>
    <path d="M37.45,170.87h-11.37v-15.93h1.57v6.26h8.23v-6.26h1.57v15.93Zm-1.57-1.35v-6.97h-8.23v6.97h8.23Zm7.4,8.05v-24.54h1.57v24.54h-1.57Z"/>
    <path d="M48.6,172.36h22.79v1.38h-22.79v-1.38Zm1.67-6.21c1.58-.47,2.97-1.11,4.16-1.92,1.19-.81,2.17-1.74,2.94-2.78,.77-1.04,1.34-2.18,1.69-3.4s.49-2.49,.42-3.81h1.7c.02,1.28-.12,2.49-.4,3.65,.4,1.03,.93,1.97,1.59,2.83,.67,.86,1.41,1.64,2.23,2.32s1.68,1.27,2.59,1.75c.91,.49,1.82,.86,2.74,1.13l-.86,1.38c-.9-.29-1.78-.68-2.65-1.17-.86-.5-1.69-1.06-2.47-1.7-.78-.64-1.5-1.35-2.16-2.12-.66-.77-1.22-1.6-1.69-2.48-.77,1.76-1.92,3.29-3.44,4.59-1.52,1.3-3.32,2.32-5.39,3.08l-1-1.35Z"/>
    <path d="M73.95,172.22l-1.13-1.13c1.69-.83,3.19-1.79,4.48-2.88,1.3-1.09,2.39-2.26,3.29-3.52,.9-1.26,1.61-2.58,2.13-3.97,.52-1.39,.86-2.79,1.03-4.21-1.13,.04-2.24,.06-3.32,.07-1.08,0-2.18,.01-3.29,.01h-3.32v-1.35h4.97c1.1,0,2.21,0,3.35-.01,1.13,0,2.26-.03,3.38-.07-.32,3.79-1.43,7.1-3.31,9.93s-4.63,5.21-8.25,7.13Zm22.11-8.96v1.4h-4.43v12.91h-1.51v-24.54h1.51v10.23h4.43Z"/>
    <path d="M116.02,159.13c0,.83-.16,1.58-.47,2.27-.32,.68-.75,1.27-1.3,1.76-.55,.49-1.2,.86-1.94,1.12-.75,.26-1.56,.39-2.44,.39s-1.72-.13-2.47-.39c-.75-.26-1.4-.63-1.94-1.12-.55-.49-.98-1.07-1.28-1.76-.31-.68-.46-1.44-.46-2.27s.15-1.61,.46-2.3c.31-.68,.73-1.27,1.28-1.75,.55-.49,1.2-.86,1.94-1.12,.75-.26,1.57-.39,2.47-.39s1.7,.13,2.44,.39c.75,.26,1.39,.63,1.94,1.12,.55,.49,.98,1.07,1.3,1.75,.31,.68,.47,1.45,.47,2.3Zm-1.54,.03c0-.65-.12-1.23-.35-1.75-.23-.52-.55-.97-.96-1.34-.41-.37-.89-.65-1.46-.85-.57-.2-1.18-.3-1.85-.3s-1.31,.1-1.88,.3c-.57,.2-1.05,.48-1.46,.85-.41,.37-.72,.81-.95,1.34s-.34,1.11-.34,1.75,.11,1.2,.34,1.71c.23,.51,.54,.95,.95,1.31,.4,.36,.89,.64,1.46,.84,.57,.2,1.19,.3,1.88,.3s1.28-.1,1.85-.3c.57-.2,1.05-.48,1.46-.84,.4-.36,.72-.8,.96-1.31,.23-.51,.35-1.08,.35-1.71Zm9.21,16.79v1.35h-15.79v-5.94h13.72v-3.21h-13.72v-1.35h15.23v5.86h-13.72v3.29h14.28Zm-2.11-10.64v-12.28h1.54v12.28h-1.54Z"/>
    <path d="M126.36,171.11c1.12-.74,2.16-1.61,3.13-2.62,.97-1.01,1.8-2.18,2.5-3.52,.69-1.34,1.21-2.87,1.57-4.58s.46-3.65,.34-5.81h1.65c.09,2.25-.07,4.32-.49,6.21,.68,1.91,1.69,3.71,3.01,5.4,1.32,1.69,2.87,3.1,4.63,4.24l-1.22,1.16c-1.48-1.03-2.81-2.26-4.01-3.71-1.2-1.45-2.19-3.11-2.98-4.98-.65,1.98-1.56,3.74-2.74,5.27-1.18,1.53-2.56,2.86-4.14,4l-1.24-1.05Zm19.3,6.45v-24.54h1.57v24.54h-1.57Z"/>
    <path d="M152.82,154.18h4.56c1.06,0,2.1,0,3.1-.01,1.01,0,2.05-.03,3.13-.07-.11,1.19-.44,2.36-1,3.51-.56,1.15-1.27,2.25-2.13,3.29,.7,.81,1.58,1.6,2.63,2.36,1.05,.77,2.17,1.44,3.36,2.01l-1.11,1.27c-.52-.27-1.05-.58-1.58-.94-.53-.36-1.05-.73-1.57-1.12-.51-.39-1-.79-1.47-1.21-.47-.42-.88-.84-1.24-1.26-1.08,1.13-2.26,2.15-3.55,3.04-1.29,.89-2.58,1.61-3.87,2.15l-1.03-1.27c1.48-.59,2.83-1.31,4.08-2.15s2.32-1.72,3.24-2.66,1.67-1.89,2.25-2.86c.58-.97,.96-1.89,1.12-2.75-1.06,.04-2.05,.06-2.97,.07-.92,0-1.92,.01-3,.01h-2.97v-1.4Zm18.47,23.46h-1.51v-7.26h-14.09v-1.35h15.61v8.61Zm-1.51-16.88h-4.86v-1.4h4.86v-6.34h1.51v14.39h-1.51v-6.64Z"/>
    <path d="M175.07,172.44h22.79v1.35h-22.79v-1.35Zm19.49-11.61c0,.9-.17,1.75-.51,2.55-.34,.8-.86,1.5-1.54,2.09-.68,.59-1.53,1.07-2.54,1.42-1.01,.35-2.17,.53-3.48,.53s-2.5-.18-3.51-.53c-1.01-.35-1.85-.82-2.52-1.42-.67-.59-1.18-1.29-1.53-2.09-.34-.8-.51-1.65-.51-2.55s.17-1.75,.51-2.55c.34-.8,.85-1.5,1.54-2.09,.68-.59,1.53-1.07,2.52-1.42s2.16-.53,3.5-.53,2.47,.18,3.48,.53c1.01,.35,1.85,.82,2.54,1.42,.68,.59,1.2,1.29,1.54,2.09,.34,.8,.51,1.65,.51,2.55Zm-1.54,0c0-.63-.12-1.26-.35-1.89-.23-.63-.61-1.19-1.13-1.69-.52-.5-1.2-.9-2.02-1.2-.83-.31-1.84-.46-3.02-.46s-2.2,.15-3.02,.46c-.83,.31-1.5,.71-2.03,1.2s-.9,1.06-1.13,1.69c-.23,.63-.35,1.26-.35,1.89s.12,1.26,.35,1.89c.23,.63,.61,1.19,1.13,1.69,.52,.5,1.2,.9,2.03,1.2,.83,.31,1.84,.46,3.02,.46s2.2-.15,3.02-.46c.83-.31,1.5-.71,2.02-1.2,.52-.49,.9-1.06,1.13-1.69,.23-.63,.35-1.26,.35-1.89Z"/>
    <path d="M218.86,167.95h-7.53v4.86h10.61v1.35h-22.79v-1.35h10.56v-4.86h-6.75v-7.26h13.47v-4.4h-13.42v-1.4h14.98v7.16h-13.47v4.56h14.34v1.35Z"/>
    <path d="M231.07,154.18h4.56c1.06,0,2.1,0,3.1-.01,1.01,0,2.05-.03,3.13-.07-.14,1.22-.49,2.39-1.04,3.51-.55,1.12-1.24,2.17-2.07,3.16,.72,.76,1.6,1.51,2.63,2.25,1.03,.75,2.16,1.41,3.36,1.98l-1.11,1.24c-.52-.27-1.05-.58-1.59-.92-.54-.34-1.06-.71-1.57-1.09-.5-.39-.99-.78-1.44-1.19-.46-.4-.87-.81-1.23-1.23-1.04,1.06-2.2,2.01-3.47,2.83-1.27,.83-2.56,1.5-3.87,2.02l-1.03-1.27c1.49-.58,2.84-1.25,4.05-2.03,1.21-.77,2.25-1.6,3.13-2.47,.88-.87,1.6-1.77,2.16-2.7,.56-.93,.94-1.83,1.13-2.71-1.06,.04-2.04,.06-2.93,.07-.89,0-1.88,.01-2.96,.01h-2.97v-1.4Zm18.52,14.55v8.42h-14.98v-8.42h14.98Zm-1.51,7.07v-5.72h-11.93v5.72h11.93Zm0-15.31h-5.24v-1.4h5.24v-6.07h1.51v14.09h-1.51v-6.61Z"/>
    <path d="M255.04,166.5l-.86-1.27c1.46-.36,2.8-.84,4.02-1.43,1.22-.59,2.3-1.3,3.24-2.11,.94-.81,1.71-1.73,2.32-2.77s1.03-2.18,1.24-3.44c-1.1,.04-2.24,.06-3.43,.07-1.19,0-2.35,.01-3.48,.01h-2.54v-1.35h4.08c1.26,0,2.45,0,3.56-.01,1.12,0,2.31-.03,3.59-.07-.32,3.15-1.49,5.76-3.5,7.83-2.01,2.07-4.76,3.58-8.25,4.54Zm18.63,1.76v8.91h-14.98v-8.91h14.98Zm-1.51,7.56v-6.21h-11.93v6.21h11.93Zm0-14.39h-5.51v-1.4h5.51v-6.99h1.51v13.61h-1.51v-5.21Z"/>
    <path d="M286.77,173.27c0-1.22,.63-2.25,1.88-3.06,1.25-.82,3.06-1.27,5.41-1.36v-3.1h-10.83v-1.35h23.35v1.35h-10.94v3.1c2.41,.09,4.25,.54,5.52,1.35s1.9,1.84,1.9,3.08c0,1.31-.7,2.38-2.09,3.21-1.4,.83-3.42,1.24-6.06,1.24s-4.67-.41-6.06-1.24c-1.4-.83-2.09-1.9-2.09-3.21Zm.38-19.55h10.67c1.13,0,2.32-.02,3.56-.05,.2,0,.32,.06,.38,.19,.05,.13,.04,.26-.05,.4-.47,.83-1.09,1.61-1.88,2.35-.78,.74-1.69,1.42-2.71,2.05,1.13,.63,2.33,1.15,3.59,1.55,1.26,.41,2.56,.74,3.89,1.01l-.81,1.46c-.65-.14-1.32-.33-2.01-.55-.69-.22-1.39-.48-2.08-.77-.69-.29-1.37-.6-2.02-.93-.66-.33-1.27-.68-1.85-1.04-1.37,.74-2.88,1.38-4.52,1.92s-3.37,.97-5.17,1.3l-.76-1.35c1.67-.27,3.24-.62,4.7-1.04,1.46-.42,2.78-.9,3.97-1.44s2.23-1.12,3.12-1.74c.89-.62,1.62-1.26,2.17-1.93-.95,.04-1.89,.05-2.82,.05h-9.36v-1.43Zm1.27,19.56c0,.43,.13,.83,.38,1.2,.25,.37,.64,.69,1.17,.98,.53,.29,1.21,.51,2.02,.67,.82,.16,1.8,.24,2.93,.24s2.11-.08,2.93-.24c.82-.16,1.49-.39,2.03-.67,.53-.29,.92-.61,1.17-.98,.25-.37,.38-.77,.38-1.2s-.13-.83-.38-1.2c-.25-.37-.64-.69-1.17-.98-.53-.29-1.21-.51-2.03-.67-.82-.16-1.8-.24-2.93-.24s-2.11,.08-2.93,.24c-.82,.16-1.49,.39-2.02,.67-.53,.29-.92,.61-1.17,.98-.25,.37-.38,.77-.38,1.2Z"/>
    <path d="M320.6,159.13c0,.88-.15,1.68-.46,2.39-.31,.71-.73,1.32-1.28,1.84-.55,.51-1.2,.91-1.94,1.19-.75,.28-1.56,.42-2.44,.42s-1.72-.14-2.47-.42c-.75-.28-1.4-.67-1.94-1.19-.55-.51-.98-1.12-1.28-1.84-.31-.71-.46-1.51-.46-2.39s.15-1.69,.46-2.42c.31-.73,.73-1.35,1.28-1.85,.55-.5,1.2-.9,1.94-1.17,.75-.28,1.57-.42,2.47-.42s1.7,.14,2.44,.42c.75,.28,1.4,.67,1.94,1.17,.55,.5,.98,1.12,1.28,1.85s.46,1.53,.46,2.42Zm-1.54,0c0-.68-.11-1.31-.34-1.86-.23-.56-.54-1.03-.94-1.42-.41-.39-.89-.69-1.46-.9-.57-.22-1.18-.32-1.85-.32s-1.28,.11-1.85,.32c-.57,.22-1.05,.52-1.46,.9-.4,.39-.72,.86-.96,1.42-.23,.56-.35,1.18-.35,1.86s.12,1.3,.35,1.85c.23,.55,.55,1.02,.96,1.42,.41,.4,.89,.7,1.46,.9s1.18,.31,1.85,.31,1.28-.1,1.85-.31,1.05-.51,1.46-.9c.4-.4,.72-.87,.94-1.42,.23-.55,.34-1.17,.34-1.85Zm8.83,8.05v9.99h-14.98v-9.83h1.54v3.13h11.93v-3.29h1.51Zm-13.47,8.64h11.99v-4h-11.99v4Zm11.93-10.21v-12.58h1.54v12.58h-1.54Z"/>
    <path d="M339.23,170.41h-5.89v-15.47h1.54v14.07h4.7c1.89,0,3.63-.11,5.22-.33,1.59-.22,2.93-.48,4.01-.78v1.35c-.58,.16-1.24,.31-2,.46-.76,.14-1.56,.27-2.4,.38s-1.71,.19-2.59,.24c-.88,.05-1.75,.08-2.59,.08Zm11.21,7.16v-24.54h1.57v24.54h-1.57Z"/>
    <path d="M357.18,170.98v-15.77h11.21v1.35h-9.69v13.01h3.62c1.93,0,3.7-.11,5.33-.32,1.63-.22,2.99-.46,4.09-.73v1.3c-.59,.18-1.28,.34-2.05,.49-.77,.14-1.59,.27-2.46,.36-.86,.1-1.75,.18-2.66,.23-.91,.05-1.79,.08-2.66,.08h-4.72Zm21.95-8.61v1.43h-4.43v13.77h-1.51v-24.54h1.51v9.34h4.43Z"/>
    <path d="M382.75,172.19c.95,0,1.43,.47,1.43,1.4s-.48,1.4-1.43,1.4-1.43-.47-1.43-1.4,.48-1.4,1.43-1.4Z"/>
    <path d="M395.52,154.18h4.54c1.06,0,2.12,0,3.17-.01,1.05,0,2.13-.03,3.23-.07-.14,1.17-.47,2.27-.97,3.31-.5,1.04-1.15,2.01-1.94,2.93,.68,.81,1.53,1.59,2.52,2.34,1,.75,2.12,1.41,3.36,1.98l-1.16,1.27c-1.08-.58-2.12-1.26-3.13-2.05-1.01-.79-1.86-1.61-2.57-2.46-1.12,1.12-2.36,2.1-3.73,2.94-1.37,.85-2.75,1.56-4.13,2.13l-.97-1.3c1.48-.58,2.83-1.23,4.06-1.97,1.23-.74,2.31-1.53,3.24-2.36s1.68-1.71,2.27-2.62c.58-.91,.99-1.82,1.2-2.74-1.06,.04-2.07,.06-3.01,.07-.95,0-1.96,.01-3.04,.01h-2.94v-1.4Zm17.47,14.18v8.8h-14.71v-8.8h14.71Zm-1.51,7.45v-6.1h-11.66v6.1h11.66Zm5.59-17.33v1.4h-4.08v6.86h-1.51v-13.72h1.51v5.45h4.08Z"/>
    <path d="M417.45,171.11c1.12-.74,2.16-1.61,3.13-2.62,.97-1.01,1.8-2.18,2.5-3.52,.69-1.34,1.21-2.87,1.57-4.58,.35-1.71,.46-3.65,.34-5.81h1.65c.09,2.25-.07,4.32-.49,6.21,.68,1.91,1.69,3.71,3.01,5.4,1.32,1.69,2.87,3.1,4.63,4.24l-1.21,1.16c-1.48-1.03-2.81-2.26-4.01-3.71-1.2-1.45-2.19-3.11-2.98-4.98-.65,1.98-1.56,3.74-2.74,5.27s-2.56,2.86-4.14,4l-1.24-1.05Zm19.31,6.45v-24.54h1.57v24.54h-1.57Z"/>
    <path d="M442.07,170.33v-1.3h22.79v1.3h-10.45v7.1h-1.57v-7.1h-10.77Zm2.21-13.8h18.36v1.27h-18.36v-1.27Zm16.42,6.64c0,.5-.15,.99-.45,1.44s-.75,.86-1.35,1.2c-.6,.34-1.36,.61-2.27,.81-.91,.2-1.98,.3-3.2,.3s-2.29-.1-3.2-.3c-.91-.2-1.67-.47-2.27-.81-.6-.34-1.05-.74-1.35-1.2s-.45-.94-.45-1.44,.15-.99,.45-1.44,.74-.86,1.34-1.22c.59-.35,1.34-.62,2.25-.82,.91-.2,1.98-.3,3.23-.3s2.32,.1,3.23,.3c.91,.2,1.66,.47,2.25,.82,.59,.35,1.04,.76,1.34,1.22s.45,.94,.45,1.44Zm-1.51,.03c0-.32-.1-.63-.3-.93-.2-.3-.52-.56-.97-.78-.45-.23-1.04-.4-1.77-.54-.73-.13-1.62-.2-2.69-.2s-1.96,.07-2.69,.2c-.73,.14-1.32,.31-1.78,.54s-.79,.49-.99,.78c-.2,.3-.3,.61-.3,.93,0,.29,.1,.58,.3,.86,.2,.29,.53,.54,.99,.77s1.05,.4,1.78,.54c.73,.13,1.62,.2,2.69,.2s1.96-.07,2.69-.2c.73-.14,1.32-.31,1.77-.54,.45-.23,.77-.48,.97-.77,.2-.29,.3-.58,.3-.86Zm-10.37-9.94h9.29v1.35h-9.29v-1.35Z"/>
    <path d="M473.63,170.98v-15.77h11.21v1.35h-9.69v13.01h3.62c1.93,0,3.7-.11,5.33-.32,1.63-.22,2.99-.46,4.09-.73v1.3c-.59,.18-1.28,.34-2.05,.49-.77,.14-1.59,.27-2.46,.36-.86,.1-1.75,.18-2.66,.23-.91,.05-1.79,.08-2.66,.08h-4.72Zm21.95-8.61v1.43h-4.43v13.77h-1.51v-24.54h1.51v9.34h4.43Z"/>
    <path d="M495.75,171.11c1.12-.74,2.16-1.61,3.13-2.62,.97-1.01,1.8-2.18,2.5-3.52,.69-1.34,1.21-2.87,1.57-4.58,.35-1.71,.46-3.65,.34-5.81h1.65c.09,2.25-.07,4.32-.49,6.21,.68,1.91,1.69,3.71,3.01,5.4,1.32,1.69,2.87,3.1,4.63,4.24l-1.21,1.16c-1.48-1.03-2.81-2.26-4.01-3.71-1.2-1.45-2.19-3.11-2.98-4.98-.65,1.98-1.56,3.74-2.74,5.27s-2.56,2.86-4.14,4l-1.24-1.05Zm19.31,6.45v-24.54h1.57v24.54h-1.57Z"/>
    <path d="M539.86,163.23c0,1.33-.15,2.53-.45,3.6s-.72,1.99-1.27,2.75-1.21,1.35-1.98,1.77c-.77,.41-1.63,.62-2.56,.62s-1.79-.21-2.57-.62c-.77-.41-1.44-1-1.98-1.77-.55-.77-.97-1.68-1.27-2.75-.3-1.07-.45-2.27-.45-3.6s.15-2.51,.45-3.59c.3-1.08,.72-2,1.27-2.77,.55-.76,1.21-1.35,1.98-1.77,.77-.41,1.63-.62,2.57-.62s1.79,.21,2.56,.62c.77,.41,1.44,1,1.98,1.77,.55,.77,.97,1.69,1.27,2.77s.45,2.28,.45,3.59Zm-1.54,0c0-1.13-.11-2.16-.34-3.06-.22-.91-.55-1.68-.97-2.32-.42-.64-.92-1.13-1.5-1.48-.58-.35-1.22-.53-1.92-.53s-1.34,.18-1.92,.53c-.58,.35-1.08,.85-1.5,1.48-.42,.64-.75,1.41-.97,2.32-.23,.91-.34,1.93-.34,3.06s.11,2.16,.34,3.06c.22,.91,.55,1.68,.97,2.32,.42,.64,.92,1.13,1.5,1.48,.58,.35,1.21,.53,1.92,.53s1.34-.18,1.92-.53c.58-.35,1.08-.85,1.5-1.48,.42-.64,.75-1.41,.97-2.32,.23-.91,.34-1.93,.34-3.06Zm6.86,14.34v-24.54h1.57v24.54h-1.57Z"/>
    <path d="M570.05,157.94c0,.85-.25,1.59-.76,2.23-.5,.64-1.25,1.16-2.24,1.55v3.75h6.53v1.35h-23.35v-1.35h6.51v-3.86c-1.85-.79-2.78-2.02-2.78-3.67,0-1.42,.68-2.58,2.05-3.47s3.37-1.34,5.99-1.34,4.63,.44,5.99,1.32c1.37,.88,2.05,2.04,2.05,3.48Zm-7.96,19.79c-1.28,0-2.42-.11-3.42-.34s-1.84-.54-2.52-.94c-.68-.4-1.21-.89-1.57-1.44-.36-.56-.54-1.17-.54-1.84s.18-1.25,.54-1.8c.36-.55,.88-1.02,1.57-1.42,.68-.4,1.53-.71,2.52-.93s2.14-.34,3.42-.34,2.42,.11,3.42,.34,1.84,.54,2.54,.93c.69,.4,1.22,.87,1.59,1.42,.37,.55,.55,1.15,.55,1.8s-.18,1.28-.54,1.84c-.36,.56-.89,1.04-1.58,1.44-.69,.4-1.54,.72-2.55,.94-1.01,.23-2.15,.34-3.43,.34Zm6.43-19.79c0-.99-.53-1.81-1.59-2.47-1.06-.66-2.69-.99-4.89-.99s-3.86,.33-4.93,.99c-1.07,.66-1.61,1.48-1.61,2.47,0,.45,.13,.87,.39,1.27,.26,.4,.66,.74,1.2,1.04,.54,.3,1.22,.54,2.03,.72,.81,.18,1.77,.27,2.89,.27s2.05-.09,2.86-.27c.81-.18,1.49-.42,2.03-.72,.54-.3,.94-.64,1.21-1.04,.27-.4,.4-.82,.4-1.27Zm-6.43,18.52c1.08,0,2.02-.09,2.82-.26s1.47-.4,2-.7c.53-.3,.93-.64,1.2-1.03,.27-.39,.4-.8,.4-1.23s-.13-.84-.39-1.23c-.26-.39-.66-.73-1.19-1.03s-1.2-.53-2.01-.7c-.81-.17-1.75-.26-2.83-.26s-2.02,.09-2.83,.26c-.81,.17-1.48,.4-2,.7s-.91,.64-1.17,1.03c-.26,.39-.39,.8-.39,1.23s.13,.84,.39,1.23c.26,.39,.66,.73,1.19,1.03,.53,.3,1.2,.53,2,.7s1.74,.26,2.82,.26Zm3.43-10.99v-3.29c-1.03,.22-2.2,.32-3.51,.32-1.39,0-2.63-.13-3.73-.38v3.35h7.24Z"/>
    <path d="M586.33,159.29h-11.56v-1.4h11.56v1.4Zm-10.75,7.13c0-.74,.13-1.43,.39-2.07,.26-.64,.62-1.19,1.07-1.66,.45-.47,.99-.84,1.61-1.11s1.3-.41,2.04-.41,1.39,.14,2.02,.41,1.17,.64,1.62,1.11c.45,.47,.81,1.02,1.07,1.66,.26,.64,.39,1.33,.39,2.07s-.13,1.45-.39,2.08c-.26,.63-.62,1.18-1.07,1.65-.45,.47-.99,.83-1.62,1.09-.63,.26-1.3,.39-2.02,.39s-1.42-.13-2.04-.39c-.62-.26-1.16-.63-1.61-1.09-.45-.47-.81-1.02-1.07-1.65-.26-.63-.39-1.32-.39-2.08Zm1.54,0c0,.58,.09,1.1,.27,1.58,.18,.48,.43,.88,.74,1.22,.31,.33,.69,.59,1.12,.78,.43,.19,.9,.28,1.4,.28s.98-.09,1.42-.28c.44-.19,.82-.45,1.15-.78,.32-.33,.58-.74,.76-1.22,.18-.48,.27-1,.27-1.58s-.09-1.08-.27-1.55c-.18-.48-.43-.89-.76-1.24-.32-.35-.71-.62-1.15-.81-.44-.19-.91-.28-1.42-.28s-.97,.09-1.4,.28c-.43,.19-.81,.46-1.12,.81-.32,.35-.56,.77-.74,1.24-.18,.48-.27,.99-.27,1.55Zm6.91-10.77h-6.78v-1.46h6.78v1.46Zm11.26-2.62v24.54h-1.48v-12.83h-3.92v12.2h-1.46v-23.65h1.46v10.1h3.92v-10.37h1.48Z"/>
    <path d="M598.67,168.14v-1.35h22.79v1.35h-10.45v9.29h-1.57v-9.29h-10.77Zm3.89-14.2h10.37c1.12,0,2.29-.02,3.54-.05,.2,0,.33,.06,.39,.19,.06,.13,.05,.26-.04,.41-.42,.95-1.04,1.88-1.88,2.78-.84,.9-1.86,1.75-3.06,2.56,1.28,.68,2.61,1.28,4.01,1.78,1.39,.5,2.79,.88,4.2,1.13l-.78,1.4c-.72-.16-1.47-.36-2.24-.61-.77-.24-1.54-.52-2.31-.82-.77-.31-1.5-.64-2.2-1-.7-.36-1.35-.73-1.94-1.11-1.35,.77-2.84,1.47-4.47,2.09-1.63,.62-3.37,1.14-5.22,1.55l-.65-1.35c1.78-.32,3.48-.79,5.09-1.39,1.61-.6,3.06-1.27,4.35-2s2.37-1.47,3.24-2.22c.87-.75,1.46-1.44,1.77-2.06-.95,.04-1.92,.05-2.9,.05h-9.25v-1.35Z"/>
    <path d="M622.21,171.36c1.01-.88,1.92-1.87,2.74-2.96,.82-1.09,1.51-2.31,2.07-3.66,.56-1.35,.96-2.84,1.2-4.47s.3-3.43,.18-5.41h1.48c.04,.99,.03,1.95-.01,2.89-.05,.94-.14,1.85-.28,2.75,.45,1.93,1.14,3.72,2.07,5.39,.93,1.67,2.16,3.2,3.69,4.6l-1.24,.97c-1.21-1.26-2.22-2.56-3.04-3.9s-1.49-2.84-2.01-4.5c-.5,1.8-1.21,3.47-2.13,5s-2.08,2.93-3.48,4.21l-1.21-.92Zm14.69-9.94v-8.13h1.46v23.65h-1.46v-14.17h-4.19v-1.35h4.19Zm6.56-8.4v24.54h-1.48v-24.54h1.48Z"/>
    <path d="M662.61,167.74h1.54v5.13h5.48v1.35h-22.79v-1.35h5.67v-5.13h1.54v5.13h8.56v-5.13Zm3.7-7.02c0,.92-.18,1.77-.55,2.55-.37,.78-.9,1.47-1.59,2.05-.69,.58-1.54,1.04-2.55,1.36-1.01,.32-2.15,.49-3.43,.49s-2.39-.16-3.39-.49c-1-.32-1.84-.78-2.52-1.36-.68-.58-1.21-1.27-1.58-2.05-.37-.78-.55-1.63-.55-2.55s.18-1.77,.55-2.56c.37-.79,.9-1.48,1.58-2.08,.68-.59,1.53-1.06,2.52-1.39,1-.33,2.13-.5,3.39-.5s2.42,.17,3.43,.5c1.01,.33,1.86,.8,2.55,1.39,.69,.59,1.22,1.29,1.59,2.08,.37,.79,.55,1.65,.55,2.56Zm-1.54,0c0-.68-.14-1.34-.42-1.97-.28-.63-.69-1.18-1.24-1.66s-1.23-.85-2.05-1.13c-.82-.28-1.77-.42-2.85-.42s-2.03,.14-2.85,.42c-.82,.28-1.5,.66-2.04,1.13s-.95,1.03-1.23,1.66c-.28,.63-.42,1.29-.42,1.97s.14,1.33,.42,1.94c.28,.61,.69,1.15,1.23,1.62,.54,.47,1.22,.84,2.04,1.12,.82,.28,1.77,.42,2.85,.42s2.03-.14,2.85-.42c.82-.28,1.5-.65,2.05-1.12,.55-.47,.96-1.01,1.24-1.62,.28-.61,.42-1.26,.42-1.94Z"/>
    <path d="M673.84,172.19c.95,0,1.43,.47,1.43,1.4s-.48,1.4-1.43,1.4-1.43-.47-1.43-1.4,.48-1.4,1.43-1.4Z"/>
  </g>
  <g>
    <path class="cls-1" d="M276.58,127.49c1.7,1.06,4.19,1.94,6.81,1.94,3.89,0,6.16-2.07,6.16-5.06,0-2.77-1.57-4.36-5.55-5.9-4.8-1.72-7.77-4.22-7.77-8.41,0-4.62,3.8-8.05,9.52-8.05,3.01,0,5.2,.7,6.51,1.45l-1.05,3.12c-.96-.53-2.93-1.41-5.59-1.41-4.02,0-5.55,2.42-5.55,4.44,0,2.77,1.79,4.14,5.85,5.72,4.98,1.94,7.51,4.36,7.51,8.71,0,4.58-3.36,8.54-10.31,8.54-2.84,0-5.94-.84-7.51-1.89l.96-3.21Z"/>
    <path class="cls-1" d="M317.89,121.33c0,7.88-5.42,11.31-10.52,11.31-5.72,0-10.13-4.22-10.13-10.96,0-7.13,4.63-11.31,10.48-11.31s10.18,4.44,10.18,10.96Zm-16.77,.22c0,4.66,2.66,8.19,6.42,8.19s6.42-3.48,6.42-8.27c0-3.61-1.79-8.19-6.33-8.19s-6.51,4.22-6.51,8.27Z"/>
    <path class="cls-1" d="M322.74,117.5c0-2.51-.04-4.66-.17-6.65h3.36l.13,4.18h.17c.96-2.86,3.28-4.66,5.85-4.66,.44,0,.74,.04,1.09,.13v3.65c-.39-.09-.79-.13-1.31-.13-2.71,0-4.63,2.07-5.15,4.97-.09,.53-.17,1.14-.17,1.8v11.35h-3.8v-14.65Z"/>
    <path class="cls-1" d="M337.19,117.5c0-2.51-.04-4.66-.17-6.65h3.36l.13,4.18h.17c.96-2.86,3.28-4.66,5.85-4.66,.44,0,.74,.04,1.09,.13v3.65c-.39-.09-.79-.13-1.31-.13-2.71,0-4.63,2.07-5.15,4.97-.09,.53-.17,1.14-.17,1.8v11.35h-3.8v-14.65Z"/>
    <path class="cls-1" d="M353.96,110.86l4.63,12.59c.48,1.41,1,3.08,1.35,4.36h.09c.39-1.28,.83-2.9,1.35-4.44l4.19-12.5h4.06l-5.76,15.18c-2.75,7.3-4.63,11.05-7.25,13.33-1.88,1.67-3.75,2.33-4.72,2.51l-.96-3.26c.96-.31,2.23-.92,3.36-1.89,1.05-.84,2.36-2.33,3.23-4.31,.17-.4,.31-.7,.31-.92s-.09-.53-.26-1.01l-7.82-19.63h4.19Z"/>
    <path class="cls-1" d="M381.48,114.38c0-1.63,1.09-2.77,2.62-2.77s2.53,1.14,2.58,2.77c0,1.54-1,2.73-2.62,2.73-1.53,0-2.58-1.19-2.58-2.73Zm0,15.53c0-1.63,1.09-2.77,2.62-2.77s2.53,1.14,2.58,2.77c0,1.54-1,2.73-2.62,2.73-1.53,0-2.58-1.19-2.58-2.73Z"/>
    <path class="cls-1" d="M399.78,101.62c-3.19,4.31-5.5,10.03-5.5,18s2.4,13.47,5.5,17.87h-3.01c-2.75-3.65-5.72-9.29-5.72-17.87,.04-8.67,2.97-14.3,5.72-18h3.01Z"/>
  </g>
  <path class="cls-2" d="M433.9,368.27l-22.89-13.21c.88-4.6,1.36-9.34,1.36-14.2s-.5-9.89-1.43-14.62l22.96-13.26c2.95-1.7,3.96-5.47,2.26-8.42l-17.99-31.15c-1.7-2.95-5.47-3.96-8.42-2.26l-23.21,13.25c-7.22-6.35-14.91-11.32-25.19-14.54v-26.35c0-3.41-2.25-5.65-5.65-5.65h-35.97c-3.41,0-6.68,2.25-6.68,5.65v26.01c-9.25,3.15-17.88,8.13-25.28,14.53l-22.22-12.9c-2.95-1.7-6.66-.69-8.36,2.26l-17.95,31.15c-1.7,2.95-.68,6.72,2.27,8.42l22.06,12.73c-1,4.89-1.52,9.96-1.52,15.14s.51,9.96,1.45,14.73l-21.97,12.69c-2.95,1.7-3.96,5.47-2.26,8.42l17.98,31.15c1.7,2.95,5.48,3.96,8.42,2.26l21.77-12.72c7.46,6.54,16.35,11.62,25.6,14.81v25.55c0,3.41,3.27,6.68,6.68,6.68h35.97c3.41,0,5.65-3.27,5.65-6.68v-25.89c10.28-3.27,18.22-8.34,25.51-14.82l22.76,13.07c2.95,1.7,6.79,.69,8.49-2.26l18.02-31.15c1.7-2.95,.72-6.72-2.23-8.42Z"/>
  <circle class="cls-2" cx="337.7" cy="341.72" r="40.78"/>
  <g>
    <path class="cls-3" d="M194.9,488.59c1.39,.86,3.43,1.58,5.57,1.58,3.18,0,5.04-1.69,5.04-4.14,0-2.27-1.29-3.56-4.54-4.82-3.93-1.4-6.36-3.46-6.36-6.88,0-3.78,3.11-6.59,7.79-6.59,2.47,0,4.25,.58,5.32,1.19l-.86,2.56c-.79-.43-2.39-1.15-4.57-1.15-3.29,0-4.54,1.98-4.54,3.64,0,2.27,1.47,3.38,4.79,4.68,4.07,1.58,6.15,3.56,6.15,7.13,0,3.74-2.75,6.98-8.43,6.98-2.32,0-4.86-.68-6.15-1.55l.79-2.63Z"/>
    <path class="cls-3" d="M214.8,484.27c.07,4.28,2.79,6.05,5.93,6.05,2.25,0,3.61-.4,4.79-.9l.54,2.27c-1.11,.5-3,1.08-5.75,1.08-5.32,0-8.51-3.53-8.51-8.78s3.07-9.39,8.11-9.39c5.65,0,7.15,5,7.15,8.21,0,.65-.07,1.15-.11,1.48h-12.15Zm9.22-2.27c.04-2.02-.82-5.15-4.36-5.15-3.18,0-4.57,2.95-4.82,5.15h9.18Z"/>
    <path class="cls-3" d="M230.95,480.42c0-2.05-.04-3.82-.14-5.44h2.75l.11,3.42h.14c.79-2.34,2.68-3.82,4.79-3.82,.36,0,.61,.04,.89,.11v2.99c-.32-.07-.64-.11-1.07-.11-2.22,0-3.79,1.69-4.22,4.07-.07,.43-.14,.94-.14,1.48v9.29h-3.11v-11.99Z"/>
    <path class="cls-3" d="M244.74,474.98l3.4,9.79c.57,1.58,1.04,3.02,1.39,4.46h.11c.39-1.44,.89-2.88,1.46-4.46l3.36-9.79h3.29l-6.79,17.42h-3l-6.58-17.42h3.36Z"/>
    <path class="cls-3" d="M264.22,470.09c.04,1.08-.75,1.94-2,1.94-1.11,0-1.89-.86-1.89-1.94s.82-1.98,1.96-1.98,1.93,.86,1.93,1.98Zm-3.5,22.32v-17.42h3.15v17.42h-3.15Z"/>
    <path class="cls-3" d="M281.4,491.76c-.82,.43-2.64,1.01-4.97,1.01-5.22,0-8.61-3.56-8.61-8.89s3.64-9.25,9.29-9.25c1.86,0,3.5,.47,4.36,.9l-.71,2.45c-.75-.43-1.93-.83-3.65-.83-3.97,0-6.11,2.95-6.11,6.59,0,4.03,2.57,6.51,6,6.51,1.79,0,2.97-.47,3.86-.86l.54,2.38Z"/>
    <path class="cls-3" d="M286.62,484.27c.07,4.28,2.79,6.05,5.93,6.05,2.25,0,3.61-.4,4.79-.9l.54,2.27c-1.11,.5-3,1.08-5.75,1.08-5.33,0-8.5-3.53-8.5-8.78s3.07-9.39,8.11-9.39c5.65,0,7.15,5,7.15,8.21,0,.65-.07,1.15-.11,1.48h-12.15Zm9.22-2.27c.04-2.02-.82-5.15-4.36-5.15-3.18,0-4.57,2.95-4.82,5.15h9.18Z"/>
    <path class="cls-3" d="M313.56,468.15v14.36c0,5.43,2.39,7.74,5.61,7.74,3.57,0,5.86-2.38,5.86-7.74v-14.36h3.15v14.15c0,7.45-3.9,10.51-9.11,10.51-4.93,0-8.65-2.84-8.65-10.37v-14.29h3.14Z"/>
    <path class="cls-3" d="M333.46,479.7c0-1.8-.04-3.28-.14-4.72h2.79l.18,2.88h.07c.86-1.66,2.86-3.28,5.72-3.28,2.39,0,6.11,1.44,6.11,7.42v10.4h-3.14v-10.04c0-2.81-1.04-5.15-4-5.15-2.07,0-3.68,1.48-4.22,3.24-.14,.4-.21,.94-.21,1.48v10.47h-3.15v-12.71Z"/>
    <path class="cls-3" d="M362.87,492.41l-.25-2.2h-.11c-.97,1.37-2.82,2.59-5.29,2.59-3.5,0-5.29-2.48-5.29-5,0-4.21,3.72-6.52,10.4-6.48v-.36c0-1.44-.39-4.03-3.93-4.03-1.61,0-3.29,.5-4.5,1.3l-.71-2.09c1.43-.94,3.5-1.55,5.68-1.55,5.29,0,6.58,3.63,6.58,7.13v6.51c0,1.51,.07,2.99,.29,4.18h-2.86Zm-.46-8.89c-3.43-.07-7.33,.54-7.33,3.92,0,2.05,1.36,3.02,2.97,3.02,2.25,0,3.68-1.44,4.18-2.92,.11-.32,.18-.68,.18-1.01v-3.02Z"/>
    <path class="cls-3" d="M371.45,474.98l3.39,9.79c.57,1.58,1.04,3.02,1.39,4.46h.11c.39-1.44,.89-2.88,1.46-4.46l3.36-9.79h3.29l-6.79,17.42h-3l-6.58-17.42h3.36Z"/>
    <path class="cls-3" d="M396.85,492.41l-.25-2.2h-.11c-.96,1.37-2.82,2.59-5.29,2.59-3.5,0-5.29-2.48-5.29-5,0-4.21,3.72-6.52,10.4-6.48v-.36c0-1.44-.39-4.03-3.93-4.03-1.61,0-3.29,.5-4.5,1.3l-.71-2.09c1.43-.94,3.5-1.55,5.68-1.55,5.29,0,6.58,3.63,6.58,7.13v6.51c0,1.51,.07,2.99,.29,4.18h-2.86Zm-.46-8.89c-3.43-.07-7.33,.54-7.33,3.92,0,2.05,1.36,3.02,2.97,3.02,2.25,0,3.68-1.44,4.18-2.92,.11-.32,.18-.68,.18-1.01v-3.02Z"/>
    <path class="cls-3" d="M408,470.09c.04,1.08-.75,1.94-2,1.94-1.11,0-1.89-.86-1.89-1.94s.82-1.98,1.96-1.98,1.93,.86,1.93,1.98Zm-3.5,22.32v-17.42h3.15v17.42h-3.15Z"/>
    <path class="cls-3" d="M412.86,466.85h3.15v25.56h-3.15v-25.56Z"/>
    <path class="cls-3" d="M430.87,492.41l-.25-2.2h-.11c-.97,1.37-2.82,2.59-5.29,2.59-3.5,0-5.29-2.48-5.29-5,0-4.21,3.72-6.52,10.4-6.48v-.36c0-1.44-.39-4.03-3.93-4.03-1.61,0-3.29,.5-4.5,1.3l-.71-2.09c1.43-.94,3.5-1.55,5.68-1.55,5.29,0,6.58,3.63,6.58,7.13v6.51c0,1.51,.07,2.99,.29,4.18h-2.86Zm-.46-8.89c-3.43-.07-7.33,.54-7.33,3.92,0,2.05,1.36,3.02,2.97,3.02,2.25,0,3.68-1.44,4.18-2.92,.11-.32,.18-.68,.18-1.01v-3.02Z"/>
    <path class="cls-3" d="M438.37,492.41c.07-1.19,.14-2.95,.14-4.5v-21.06h3.11v10.94h.07c1.11-1.94,3.11-3.2,5.9-3.2,4.29,0,7.33,3.6,7.29,8.89,0,6.23-3.89,9.32-7.75,9.32-2.5,0-4.5-.97-5.79-3.28h-.11l-.14,2.88h-2.72Zm3.25-6.98c0,.4,.07,.79,.14,1.15,.61,2.2,2.43,3.71,4.72,3.71,3.29,0,5.25-2.7,5.25-6.7,0-3.49-1.79-6.48-5.15-6.48-2.14,0-4.15,1.48-4.79,3.89-.07,.36-.18,.79-.18,1.3v3.13Z"/>
    <path class="cls-3" d="M458.85,466.85h3.15v25.56h-3.15v-25.56Z"/>
    <path class="cls-3" d="M469.03,484.27c.07,4.28,2.79,6.05,5.93,6.05,2.25,0,3.61-.4,4.79-.9l.54,2.27c-1.11,.5-3,1.08-5.75,1.08-5.33,0-8.5-3.53-8.5-8.78s3.07-9.39,8.11-9.39c5.65,0,7.15,5,7.15,8.21,0,.65-.07,1.15-.11,1.48h-12.15Zm9.22-2.27c.04-2.02-.82-5.15-4.36-5.15-3.18,0-4.57,2.95-4.82,5.15h9.18Z"/>
  </g>
</svg>