<svg width="102" height="83" viewBox="0 0 102 83" fill="none" xmlns="http://www.w3.org/2000/svg">
<g clip-path="url(#clip0_1012_348)">
<path d="M30.557 81.6759L32.4895 81.6758L33.4088 74.178L30.5566 74.1782L30.557 81.6759Z" fill="#FFB6B6"/>
<path d="M37.1778 81.6319C37.238 81.7338 37.2697 82.0628 37.2697 82.1813C37.2697 82.5457 36.9761 82.8411 36.6138 82.8411H30.6292C30.3821 82.8411 30.1817 82.6396 30.1817 82.391V82.1404C30.1817 82.1404 29.8857 81.3871 30.4952 80.4587C30.4952 80.4587 31.2528 81.1856 32.3848 80.047L32.7186 79.4387L35.1349 81.2163L36.4742 81.3821C36.7672 81.4184 37.0271 81.3765 37.1778 81.6319Z" fill="#2F2E41"/>
<path d="M41.2001 81.6759L43.1326 81.6758L44.0518 74.178L41.1997 74.1782L41.2001 81.6759Z" fill="#FFB6B6"/>
<path d="M47.8209 81.6319C47.881 81.7338 47.9128 82.0628 47.9128 82.1813C47.9128 82.5457 47.6191 82.8411 47.2569 82.8411H41.2723C41.0252 82.8411 40.8248 82.6396 40.8248 82.391V82.1404C40.8248 82.1404 40.5288 81.3871 41.1383 80.4587C41.1383 80.4587 41.8958 81.1856 43.0278 80.047L43.3616 79.4387L45.778 81.2163L47.1173 81.3821C47.4103 81.4184 47.6701 81.3765 47.8209 81.6319Z" fill="#2F2E41"/>
<path d="M40.4236 21.9907C40.4236 21.9907 42.6493 20.9712 44.0705 21.9907C45.4917 23.0103 46.7587 32.1866 45.2383 33.7159C43.7178 35.2453 41.1838 31.8042 41.1838 31.8042L40.4236 21.9907Z" fill="#FFB6B6"/>
<path d="M32.0116 22.1122C32.0116 22.1122 29.7858 21.0926 28.3647 22.1122C26.9435 23.1318 25.6765 32.308 27.1969 33.8374C28.7174 35.3668 31.2514 31.9257 31.2514 31.9257L32.0116 22.1122Z" fill="#FFB6B6"/>
<path d="M32.0751 33.3914C32.0751 33.3914 31.3149 36.8324 30.428 38.3618L36.8898 42.1853L41.9578 38.8716C41.9578 38.8716 39.5505 34.9207 39.9306 33.7737L32.0751 33.3914Z" fill="#FFB6B6"/>
<path d="M76.1002 81.2938L73.6185 81.2936L72.438 71.6649L76.1007 71.6652L76.1002 81.2938Z" fill="#FFB6B6"/>
<path d="M67.5978 81.2372C67.5205 81.3681 67.4797 81.7906 67.4797 81.9429C67.4797 82.4108 67.8568 82.7901 68.322 82.7901H76.0075C76.3249 82.7901 76.5821 82.5313 76.5821 82.2121V81.8902C76.5821 81.8902 76.9623 80.9229 76.1796 79.7306C76.1796 79.7306 75.2067 80.6642 73.753 79.2019L73.3243 78.4208L70.2213 80.7036L68.5013 80.9165C68.125 80.9631 67.7913 80.9093 67.5978 81.2372Z" fill="#2F2E41"/>
<path d="M83.7714 81.2938L81.2897 81.2936L80.1091 71.6649L83.7719 71.6652L83.7714 81.2938Z" fill="#FFB6B6"/>
<path d="M75.2689 81.2372C75.1916 81.3681 75.1509 81.7906 75.1509 81.9429C75.1509 82.4108 75.528 82.7901 75.9932 82.7901H83.6787C83.996 82.7901 84.2533 82.5313 84.2533 82.2121V81.8902C84.2533 81.8902 84.6335 80.9229 83.8507 79.7306C83.8507 79.7306 82.8779 80.6642 81.4242 79.2019L80.9955 78.4208L77.8924 80.7036L76.1724 80.9165C75.7961 80.9631 75.4625 80.9093 75.2689 81.2372Z" fill="#2F2E41"/>
<path d="M70.9374 25.7488C70.9374 25.7488 70.578 28.0759 70.9942 29.5776L64.8818 40.4804L67.2595 42.2236L75.2 32.1742L76.3004 27.209L70.9374 25.7488Z" fill="#FFB6B6"/>
<path d="M66.8947 43.8094C67.737 42.3069 67.672 40.6647 66.7494 40.1413C65.8268 39.618 64.3961 40.4118 63.5537 41.9143C62.7114 43.4168 62.7765 45.059 63.699 45.5823C64.6216 46.1057 66.0524 45.3119 66.8947 43.8094Z" fill="#FFB6B6"/>
<path d="M73.322 36.8413C73.322 36.8413 70.3996 38.9158 71.4042 42.0123L70.5823 52.4577L72.4087 73.9531H76.3428L76.9749 58.5205L79.5319 48.7832L79.8634 73.9531L84.7373 73.8612C84.7373 73.8612 85.0113 61.2763 84.646 60.5414C84.2807 59.8065 84.646 60.396 84.646 60.396L87.6597 45.6578L87.2031 35.5553L73.322 36.8413Z" fill="#2F2E41"/>
<path d="M80.5366 11.2123L75.2399 13.2332L75.7878 14.703L71.4043 18.01L74.3266 28.2984L72.6828 37.4844L77.4316 37.3007L87.6598 36.3821L86.5639 25.1751L86.7466 14.3355L82.7283 12.8658L80.5366 11.2123Z" fill="#D7AF66"/>
<path d="M72.7742 17.7344L71.4043 18.01C71.4043 18.01 70.7651 18.4693 70.7651 20.1228C70.7651 21.7762 70.7651 22.8786 70.9477 23.7972C70.9477 23.7972 69.8518 26.7367 70.2171 27.4716C70.5824 28.2065 75.1486 28.2065 75.1486 28.2065L72.7742 17.7344Z" fill="#D7AF66"/>
<path d="M80.3223 6.94909C80.3223 9.26205 78.4582 11.1371 76.1588 11.1371C73.8594 11.1371 71.9954 9.26205 71.9954 6.94909C71.9954 4.63613 73.8594 2.76111 76.1588 2.76111C78.4582 2.76111 80.3223 4.63613 80.3223 6.94909Z" fill="#FFB6B6"/>
<path d="M78.7607 9.86525C78.7607 9.86525 79.4982 7.01489 78.7123 7.5175L77.4926 7.40091L78.2627 5.32867C78.2627 5.32867 76.884 4.28902 76.3343 4.89674C75.7846 5.50446 75.9163 5.84718 75.4166 5.05662C74.917 4.26606 73.8729 4.28101 72.9166 4.84986C71.9603 5.41872 71.2131 5.51235 71.3948 4.4568C71.5766 3.40125 71.4747 1.60763 72.0424 1.81104C72.6101 2.01445 72.4545 2.12926 72.7606 1.39215C73.0668 0.655037 73.1054 0.246065 73.8141 0.561402C74.5227 0.876739 76.3036 -0.603695 77.0395 0.291975C77.7753 1.18764 78.4181 1.33162 79.0609 1.47559C79.7037 1.61957 82.2863 1.20617 82.0703 5.22963C82.0703 5.22963 83.7941 8.69572 80.689 10.2972C80.689 10.2972 79.8464 9.46067 79.258 10.4774L78.7607 9.86525Z" fill="#2F2E41"/>
<path d="M38.7902 18.8623L34.7358 18.9898L32.5818 21.6662L30.1745 22.1759C30.1745 22.1759 29.4143 29.313 30.5546 31.862C31.6949 34.4109 31.1881 35.1756 31.1881 35.1756L40.3106 35.0482C40.3106 35.0482 40.0572 33.3171 41.5777 31.8249L42.3401 28.9865C42.7478 27.469 42.6089 25.8553 41.948 24.4308L40.3106 20.9015L38.9169 20.3917L38.7902 18.8623Z" fill="#2F2E41"/>
<path d="M31.188 36.705L30.6179 37.6608C30.6179 37.6608 28.844 40.0823 28.5906 46.9645C28.3372 53.8467 30.4278 76.1165 30.4278 76.1165H33.321L36.4487 45.9866L40.6273 76.1501L44.365 76.2138L44.0483 45.4351C44.0483 45.4351 43.288 38.4255 41.2608 36.8961C41.2608 36.8961 34.7357 42.8225 31.188 36.705Z" fill="#2F2E41"/>
<path d="M25.9114 21.6065C25.9114 22.9297 25.8322 23.9142 24.3958 24.0023C23.0467 24.085 22.8801 22.9297 22.8801 21.6065C22.8801 20.2834 22.9115 19.2215 24.3958 19.2108C26.0856 19.1986 25.9114 20.2834 25.9114 21.6065Z" fill="#D7AF66"/>
<path d="M34.3557 21.6066C34.3557 22.9297 34.7014 23.9142 32.8401 24.0023C31.4082 24.0701 31.3245 22.9297 31.3245 21.6066C31.3245 20.2834 31.5348 19.3593 32.8401 19.2108C34.0679 19.0712 34.3557 20.2834 34.3557 21.6066Z" fill="#D7AF66"/>
<path d="M33.0565 20.5176H24.6123V22.4777H33.0565V20.5176Z" fill="#D7AF66"/>
<path d="M40.4822 21.2242C40.4822 22.5473 40.403 23.5318 38.9666 23.6199C37.6175 23.7027 37.4509 22.5473 37.4509 21.2242C37.4509 19.9011 37.4823 18.8392 38.9666 18.8285C40.6564 18.8163 40.4822 19.9011 40.4822 21.2242Z" fill="#D7AF66"/>
<path d="M48.9265 21.2242C48.9265 22.5474 49.2722 23.5319 47.4109 23.62C45.979 23.6877 45.8953 22.5474 45.8953 21.2242C45.8953 19.9011 46.1056 18.977 47.4109 18.8285C48.6387 18.6889 48.9265 19.9011 48.9265 21.2242Z" fill="#D7AF66"/>
<path d="M47.6273 20.1353H39.1831V22.0954H47.6273V20.1353Z" fill="#D7AF66"/>
<path d="M62.5283 42.1257C62.5283 43.4488 62.4491 44.4333 61.0127 44.5214C59.6636 44.6042 59.4971 43.4488 59.4971 42.1257C59.4971 40.8026 59.5285 39.7407 61.0127 39.73C62.7025 39.7178 62.5283 40.8026 62.5283 42.1257Z" fill="#D7AF66"/>
<path d="M70.9727 42.1257C70.9727 43.4488 71.3183 44.4334 69.457 44.5215C68.0251 44.5892 67.9414 43.4488 67.9414 42.1257C67.9414 40.8026 68.1517 39.8785 69.457 39.73C70.6848 39.5903 70.9727 40.8026 70.9727 42.1257Z" fill="#D7AF66"/>
<path d="M69.6735 41.0367H61.2292V42.9969H69.6735V41.0367Z" fill="#D7AF66"/>
<path d="M43.4699 24.2347C44.3791 24.2347 45.1161 23.0344 45.1161 21.5537C45.1161 20.0731 44.3791 18.8728 43.4699 18.8728C42.5607 18.8728 41.8237 20.0731 41.8237 21.5537C41.8237 23.0344 42.5607 24.2347 43.4699 24.2347Z" fill="#FFB6B6"/>
<path d="M35.6859 17.3329C38.17 17.3329 40.1838 15.3072 40.1838 12.8085C40.1838 10.3097 38.17 8.28406 35.6859 8.28406C33.2018 8.28406 31.188 10.3097 31.188 12.8085C31.188 15.3072 33.2018 17.3329 35.6859 17.3329Z" fill="#FFB6B6"/>
<path d="M34.7829 14.2302L35.8235 12.5643L36.2922 10.2987C36.2922 10.2987 41.0331 11.4618 39.7611 9.13558C38.4892 6.80935 35.2515 6.22779 33.0546 7.97246L32.1077 8.90295C32.1077 8.90295 34.2109 6.92566 32.9389 6.22779C31.667 5.52992 31.8983 5.06468 31.2045 5.64623C30.5107 6.22779 30.8576 6.69303 30.0482 6.3441C29.2388 5.99517 27.5043 5.52992 27.7356 6.11148C27.9668 6.69304 26.2224 8.20508 26.8633 8.90295C27.5043 9.60082 26.9261 10.9966 28.0825 10.6476C29.2388 10.2987 28.6606 12.0434 29.7013 11.3455C29.7013 11.3455 28.8471 12.4404 29.5409 13.2546C30.2347 14.0688 31.3036 14.3856 31.188 15.5487C31.0724 16.7118 33.8487 16.9506 33.8487 16.9506L33.6327 13.5554C33.6327 13.5554 34.3203 12.9883 34.7829 14.2302Z" fill="#2F2E41"/>
<path d="M80.5762 22.0371C80.5762 22.0371 79.913 24.2957 80.1276 25.8397L72.6313 35.8305L74.7581 37.8755L83.9537 28.9746L85.6992 24.2001L80.5762 22.0371Z" fill="#FFB6B6"/>
<path d="M74.1873 39.3986C75.2204 38.0218 75.3725 36.3854 74.5271 35.7436C73.6817 35.1018 72.1589 35.6976 71.1259 37.0744C70.0928 38.4513 69.9407 40.0877 70.7861 40.7295C71.6315 41.3713 73.1543 40.7755 74.1873 39.3986Z" fill="#FFB6B6"/>
<path d="M86.0087 13.7319C86.0087 13.7319 88.344 14.5842 88.0469 16.2C87.7498 17.8159 87.637 18.8811 87.637 18.8811C87.637 18.8811 87.8901 19.7637 87.56 20.2037C87.2299 20.6436 85.5352 25.8019 85.5352 25.8019L79.4399 23.7065C79.4399 23.7065 83.0132 13.7596 86.0087 13.7319Z" fill="#D7AF66"/>
<path d="M102 82.8929C102 82.9521 101.952 83 101.894 83H0.106433C0.0476525 83 0 82.9521 0 82.8929C0 82.8338 0.0476513 82.7859 0.106433 82.7859H101.894C101.952 82.7859 102 82.8338 102 82.8929Z" fill="#E6E6E6"/>
<path d="M30.6114 21.6752C30.6114 23.1558 29.8744 24.3561 28.9653 24.3561C28.0561 24.3561 27.3191 23.1558 27.3191 21.6752C27.3191 20.1946 28.0561 18.9943 28.9653 18.9943C29.8744 18.9943 30.6114 20.1946 30.6114 21.6752Z" fill="#FFB6B6"/>
</g>
<defs>
<clipPath id="clip0_1012_348">
<rect width="102" height="83" fill="white"/>
</clipPath>
</defs>
</svg>
