<?xml version="1.0" encoding="UTF-8"?>
<svg id="Layer_1" data-name="Layer 1" xmlns="http://www.w3.org/2000/svg" viewBox="0 0 266.57 121.73">
  <defs>
    <style>
      .cls-1 {
        fill: #231f20;
        font-family: ArialMT, Arial;
        font-size: 13.06px;
      }

      .cls-2 {
        stroke: #231f20;
        stroke-width: 3px;
      }

      .cls-2, .cls-3, .cls-4, .cls-5 {
        stroke-miterlimit: 10;
      }

      .cls-2, .cls-4, .cls-5 {
        fill: none;
      }

      .cls-3 {
        stroke-width: 2px;
      }

      .cls-3, .cls-6 {
        fill: #c49a6c;
      }

      .cls-3, .cls-5 {
        stroke: #8b5e3c;
      }

      .cls-7 {
        letter-spacing: -.02em;
      }

      .cls-4 {
        stroke: #c6a26e;
      }

      .cls-4, .cls-5 {
        stroke-width: 6px;
      }

      .cls-8 {
        fill: #8b5e3c;
      }
    </style>
  </defs>
  <text class="cls-1" transform="translate(34.93 117.49) scale(1.26 1)"><tspan x="0" y="0">CYM POSITION SUPPO</tspan><tspan class="cls-7" x="144.45" y="0">RT</tspan></text>
  <path class="cls-3" d="M154.07,25.72c0-.27,0-.5,0-.68v-.29c.15-3.36,1.63-7.27,4.37-10.62-1.24-1.78-2.75-3.39-4.55-4.84-5.78-4.68-13.8-7.01-24.07-7.01h-31.23l-21.05,89.83h18.99l7.34-31.3h20.72c7.8,0,14.51-1.38,20.15-4.15,5.64-2.76,10.02-6.6,13.14-11.5,.88-1.38,1.63-2.82,2.27-4.32-5.58-8.96-6.16-12.19-6.06-15.11Zm-12.71,12.07c-1.38,2.45-3.39,4.43-6.05,5.92-2.67,1.5-6.06,2.25-10.18,2.25h-17.79l6.78-28.86h13.76c5.32,0,9.24,1.16,11.76,3.47,2.52,2.31,3.78,5.38,3.78,9.18,0,2.91-.69,5.58-2.06,8.03Z"/>
  <g>
    <path class="cls-6" d="M36.64,92.37c-6.41,0-12.29-1.51-17.46-4.49-5.17-2.98-9.36-7.33-12.48-12.95-3.12-5.62-4.7-12.46-4.7-20.33,0-7.02,1.06-13.76,3.15-20.02,2.08-6.25,5.16-11.91,9.15-16.83,3.97-4.89,8.95-8.78,14.82-11.56,5.87-2.78,12.7-4.19,20.32-4.19,6.11,0,11.69,.94,16.58,2.79,4.86,1.84,9.03,4.68,12.4,8.44,3.17,3.54,5.38,8.14,6.57,13.67l-16.01,3.52c-1.12-4.9-3.35-8.65-6.62-11.16-3.48-2.66-8.01-4.02-13.46-4.02-4.59,0-8.81,1.05-12.53,3.12-3.69,2.06-6.87,4.9-9.44,8.45-2.55,3.52-4.52,7.58-5.86,12.07-1.34,4.47-2.01,9.21-2.01,14.09,0,5.38,.9,10.1,2.67,14.02,1.8,3.98,4.45,7.06,7.87,9.15,3.41,2.08,7.61,3.14,12.49,3.14,4.2,0,7.89-.69,10.95-2.06,3.08-1.38,5.66-3.35,7.65-5.87,1.98-2.5,3.42-5.39,4.26-8.59l1.49-4.66h-24.06l2.67-11.6h37.1l-11.07,44.66h-11.04l3.27-15.04-2.93,4.39c-.82,1.22-1.71,2.38-2.67,3.43-2.47,2.73-5.47,4.84-8.89,6.28-3.44,1.44-7.55,2.17-12.2,2.17Z"/>
    <path class="cls-8" d="M49.43,3c5.99,0,11.45,.92,16.23,2.73,4.7,1.78,8.74,4.53,12,8.17,2.87,3.2,4.92,7.32,6.12,12.24l-14.07,3.09c-1.24-4.66-3.51-8.28-6.75-10.77-3.65-2.8-8.39-4.22-14.07-4.22-4.77,0-9.14,1.09-13.01,3.25-3.82,2.13-7.11,5.07-9.76,8.74-2.62,3.61-4.64,7.78-6.01,12.37-1.36,4.56-2.06,9.4-2.06,14.38,0,5.52,.93,10.38,2.76,14.43,1.88,4.16,4.66,7.39,8.26,9.59,3.57,2.18,7.95,3.29,13.01,3.29,4.35,0,8.17-.72,11.36-2.15,3.02-1.35,5.58-3.25,7.61-5.65l-1.69,7.77c-.73,1.07-1.53,2.08-2.37,3-2.37,2.62-5.25,4.65-8.54,6.03-3.32,1.39-7.3,2.09-11.81,2.09-6.24,0-11.94-1.47-16.96-4.36-5.01-2.88-9.08-7.11-12.1-12.57-3.04-5.47-4.58-12.15-4.58-19.84,0-6.92,1.04-13.55,3.09-19.7,2.04-6.13,5.06-11.69,8.97-16.51,3.87-4.78,8.74-8.57,14.47-11.29,5.73-2.72,12.42-4.09,19.89-4.09m31.45,44.48l-10.57,42.66h-9.01l1.81-8.3c1.36-2.08,2.55-4.4,3.55-6.91l.43-1.08-.73-.91-1.63-2.04-1.37-1.71c1.1-1.89,1.95-3.94,2.54-6.14l1.07-3.35,.83-2.61h-24.17l2.21-9.6h35.03M49.43,1c-7.8,0-14.72,1.43-20.75,4.29-6.03,2.86-11.09,6.8-15.17,11.83-4.08,5.03-7.19,10.75-9.32,17.14-2.13,6.39-3.2,13.17-3.2,20.34,0,8.07,1.61,15.01,4.83,20.81,3.22,5.8,7.5,10.25,12.86,13.33,5.35,3.08,11.34,4.62,17.96,4.62,4.81,0,9-.75,12.58-2.24,3.58-1.5,6.67-3.67,9.25-6.53,.99-1.09,1.91-2.27,2.76-3.54l1.94-8.9,1.63,2.04c-1.01,2.52-2.2,4.81-3.57,6.86l-2.42,11.09h13.06l11.56-46.66H44.26l-3.13,13.6h23.94l-1.09,3.4c-.82,3.08-2.18,5.83-4.08,8.23-1.9,2.4-4.33,4.26-7.28,5.58-2.95,1.32-6.46,1.97-10.54,1.97-4.72,0-8.71-1-11.97-2.99-3.26-1.99-5.76-4.9-7.48-8.71-1.72-3.81-2.58-8.34-2.58-13.6,0-4.81,.66-9.41,1.97-13.81,1.31-4.4,3.22-8.32,5.71-11.77,2.49-3.45,5.53-6.17,9.11-8.16,3.58-1.99,7.59-2.99,12.04-2.99,5.26,0,9.54,1.27,12.86,3.81,3.31,2.54,5.46,6.39,6.46,11.56l17.96-3.95c-1.18-6.17-3.52-11.2-7.01-15.1-3.49-3.9-7.75-6.8-12.79-8.71S55.69,1,49.43,1h0Z"/>
  </g>
  <g>
    <path class="cls-6" d="M222.71,93.73c-6.4,0-12.39-.9-17.79-2.67-5.4-1.77-10.21-4.38-14.29-7.78-3.9-3.23-7.19-7.34-9.79-12.23l11.03-9.13c1.9,3.95,4.38,7.3,7.39,9.96,3.31,2.94,7.06,5.14,11.16,6.53,4.07,1.39,8.3,2.1,12.57,2.1,3.56,0,6.57-.56,8.92-1.66,2.38-1.12,4.19-2.66,5.39-4.59,1.18-1.94,1.78-4.01,1.78-6.18,0-2.73-.96-4.95-2.86-6.61-1.78-1.53-4.44-2.83-7.92-3.87l-13.88-4.22c-4.14-1.31-7.85-3.06-11.02-5.18-2.37-1.57-4.38-3.45-5.97-5.58-.47-.63-.9-1.27-1.27-1.89,1.33-2.29,2.41-4.31,3.21-6.01,.5-.94,.95-2,1.29-3.11,.62-1.77,.87-3.27,.79-4.68,0-.18,0-.36,0-.56,0-3.84-1.24-7.53-3.58-10.72,2.87-3.92,6.8-7.01,11.71-9.18,5.07-2.24,11.04-3.38,17.75-3.38,9.04,0,16.68,1.7,22.71,5.04,5.78,3.22,10.47,7.87,13.94,13.83l-11.5,8.89c-1.54-3.31-3.58-6.03-6.08-8.11-2.75-2.29-5.82-3.93-9.14-4.89-3.24-.92-6.67-1.39-10.21-1.39s-6.46,.5-8.82,1.5c-2.43,1.02-4.27,2.42-5.46,4.17-1.2,1.73-1.81,3.73-1.81,5.94,0,2.64,1.11,5,3.31,7,2.08,1.89,4.86,3.43,8.24,4.56l14.59,4.37c6.49,2.1,11.45,4.94,14.72,8.43,3.21,3.42,4.84,7.9,4.84,13.32,0,5.75-1.52,10.77-4.51,14.92-3.02,4.2-7.13,7.45-12.23,9.67-5.16,2.25-10.96,3.39-17.22,3.39Zm-29.33-64.01c.03-1.63,.19-3.2,.47-4.71,.06,.45,.09,.9,.09,1.36,0,.23,0,.45-.02,.67v.11s.01,.1,.01,.1c.03,.18,.05,.73-.41,2.01-.05,.16-.09,.31-.15,.46Z"/>
    <path class="cls-8" d="M227.33,4.09c8.86,0,16.34,1.65,22.23,4.91,5.38,2.99,9.79,7.27,13.12,12.71l-9.83,7.6c-1.53-2.94-3.47-5.4-5.8-7.33-2.86-2.38-6.05-4.09-9.5-5.08-3.32-.95-6.85-1.43-10.48-1.43s-6.72,.53-9.21,1.58c-2.61,1.1-4.59,2.62-5.9,4.52-1.32,1.91-1.99,4.1-1.99,6.51,0,2.93,1.22,5.54,3.64,7.75,2.19,1.98,5.08,3.59,8.6,4.76h.03s.03,.02,.03,.02l14.52,4.34c6.35,2.05,11.17,4.8,14.32,8.17,3.07,3.27,4.57,7.41,4.57,12.64,0,5.53-1.45,10.36-4.32,14.34-2.91,4.05-6.89,7.19-11.82,9.33-5.03,2.19-10.69,3.31-16.82,3.31s-12.18-.88-17.48-2.62c-5.28-1.73-9.98-4.28-13.97-7.6-3.61-2.98-6.68-6.75-9.15-11.22l9.43-7.81c1.88,3.58,4.24,6.64,7.05,9.13,3.41,3.03,7.28,5.29,11.5,6.73,4.18,1.43,8.52,2.15,12.89,2.15,3.71,0,6.86-.59,9.35-1.76,2.56-1.2,4.51-2.87,5.82-4.98,1.28-2.09,1.93-4.34,1.93-6.7,0-3.03-1.08-5.51-3.21-7.37-1.91-1.64-4.62-2.97-8.27-4.06l-13.86-4.21c-4.06-1.29-7.68-2.99-10.78-5.06-2.27-1.51-4.2-3.31-5.72-5.33-.33-.44-.63-.88-.91-1.32,1.2-2.08,2.18-3.93,2.93-5.52,.54-1.02,1-2.11,1.35-3.25,.66-1.9,.93-3.5,.84-5.02,0-.18,0-.36,0-.55,0-3.82-1.15-7.49-3.35-10.7,2.72-3.5,6.37-6.29,10.87-8.29,4.94-2.18,10.78-3.29,17.35-3.29m0-2c-6.9,0-12.95,1.16-18.16,3.46-5.21,2.32-9.32,5.58-12.31,9.79-.08,.11-.16,.22-.22,.33,2.41,3.03,3.82,6.71,3.82,10.69,0,.19,0,.38,0,.56,.09,1.29-.16,2.7-.74,4.38-.31,1.01-.72,2.01-1.24,2.98-.85,1.8-2,3.95-3.46,6.43,.05,.1,.1,.18,.16,.28,.45,.77,.94,1.51,1.47,2.22,1.67,2.23,3.74,4.16,6.22,5.81,3.26,2.18,7.02,3.95,11.28,5.3l13.88,4.22c3.36,1,5.88,2.23,7.55,3.67,1.67,1.46,2.52,3.4,2.52,5.86,0,1.99-.54,3.87-1.63,5.65-1.09,1.76-2.74,3.17-4.96,4.21-2.23,1.04-5.06,1.57-8.5,1.57-4.18,0-8.26-.68-12.25-2.04-4-1.36-7.6-3.47-10.82-6.33-3.22-2.85-5.78-6.46-7.68-10.81l-12.65,10.48c2.72,5.35,6.19,9.77,10.41,13.26,4.21,3.5,9.08,6.15,14.62,7.96,5.53,1.82,11.57,2.72,18.1,2.72s12.3-1.16,17.62-3.47c5.3-2.31,9.51-5.64,12.64-10,3.13-4.35,4.7-9.52,4.7-15.5s-1.7-10.38-5.11-14.01c-3.39-3.63-8.45-6.54-15.16-8.71l-14.56-4.36c-3.26-1.09-5.89-2.54-7.89-4.35-1.99-1.82-2.99-3.9-2.99-6.26,0-1.98,.54-3.78,1.63-5.37,1.09-1.59,2.76-2.86,5.03-3.81s5.08-1.42,8.43-1.42,6.76,.45,9.93,1.35c3.17,.91,6.1,2.47,8.77,4.7,2.67,2.22,4.79,5.18,6.32,8.91l13.2-10.2c-3.63-6.54-8.55-11.52-14.76-14.97-6.22-3.44-13.95-5.16-23.2-5.16h0Zm-33.56,19.29c-.93,2.72-1.4,5.68-1.4,8.87,0,1.18,.08,2.32,.24,3.42,.34-.64,.65-1.26,.92-1.86,.39-.71,.7-1.45,.92-2.22,.39-1.08,.55-1.95,.46-2.52,0-.23,.02-.47,.02-.71,0-1.77-.42-3.45-1.17-4.99h0Z"/>
  </g>
  <path class="cls-4" d="M192.36,28.62c-.22,.77-.54,1.51-.92,2.22-.27,.59-.58,1.22-.92,1.86-4.29,8.26-13.03,20.49-13.03,20.49-15.77-21.96-15.43-25.04-15.34-27.06-.02-.32,0-.57,0-.74,.21-5.29,5.69-13.05,15.36-13.05,6.39,0,11.88,3.33,14.18,8.06,.75,1.54,1.17,3.22,1.17,4.99,0,.24,0,.48-.02,.71,.1,.57-.07,1.44-.46,2.52Z"/>
  <path class="cls-5" d="M192.36,28.62c-.22,.77-.54,1.51-.92,2.22-.27,.59-.58,1.22-.92,1.86-4.29,8.26-13.03,20.49-13.03,20.49-15.77-21.96-15.43-25.04-15.34-27.06-.02-.32,0-.57,0-.74,.21-5.29,5.69-13.05,15.36-13.05,6.39,0,11.88,3.33,14.18,8.06,.75,1.54,1.17,3.22,1.17,4.99,0,.24,0,.48-.02,.71,.1,.57-.07,1.44-.46,2.52Z"/>
  <circle class="cls-2" cx="177.48" cy="27.59" r="4.96"/>
  <path class="cls-6" d="M57.75,75.6s4.97-4.06,6.91-9.06l1.16,6.44-4.04,4.72-4.04,4.72v-6.81Z"/>
  <polygon class="cls-6" points="63 82.41 64.17 75.54 65.82 71.67 67.64 74.83 63 82.41"/>
  <polyline class="cls-8" points="63.97 76.4 63.85 76.6 61.19 81.22 61.77 77.74 64.14 75.39"/>
</svg>