<svg width="85" height="104" viewBox="0 0 85 104" fill="none" xmlns="http://www.w3.org/2000/svg">
<path d="M7.352 23.32C6.54133 23.32 5.77333 23.224 5.048 23.032C4.32267 22.8613 3.66133 22.6053 3.064 22.264C2.46667 21.9013 1.93333 21.4747 1.464 20.984C0.994667 20.472 0.589333 19.9067 0.248 19.288L3.352 16.056C3.65067 16.504 3.93867 16.8773 4.216 17.176C4.49333 17.4533 4.76 17.688 5.016 17.88C5.29333 18.072 5.57067 18.2107 5.848 18.296C6.14667 18.3813 6.456 18.424 6.776 18.424C7.288 18.424 7.736 18.3067 8.12 18.072C8.52533 17.816 8.83467 17.4747 9.048 17.048C9.26133 16.6213 9.368 16.12 9.368 15.544V5.336H5.272V0.599998H18.136V5.336H14.68V16.184C14.68 17.272 14.488 18.2533 14.104 19.128C13.7413 20.0027 13.2293 20.76 12.568 21.4C11.9067 22.0187 11.128 22.4987 10.232 22.84C9.35733 23.16 8.39733 23.32 7.352 23.32ZM32.5373 23.192C30.6813 23.192 29.0279 22.8187 27.5773 22.072C26.1266 21.304 24.9853 20.2587 24.1533 18.936C23.3426 17.6133 22.9373 16.0987 22.9373 14.392V0.599998H28.4413V14.104C28.4413 14.9147 28.6226 15.6507 28.9853 16.312C29.3479 16.952 29.8386 17.464 30.4573 17.848C31.0759 18.2107 31.7693 18.392 32.5373 18.392C33.3479 18.392 34.0626 18.2107 34.6813 17.848C35.3213 17.464 35.8333 16.952 36.2173 16.312C36.6013 15.6507 36.7933 14.9147 36.7933 14.104V0.599998H42.1053V14.392C42.1053 16.0987 41.6893 17.6133 40.8573 18.936C40.0466 20.2587 38.9159 21.304 37.4653 22.072C36.0146 22.8187 34.3719 23.192 32.5373 23.192ZM54.6775 23.32C53.2055 23.32 51.8722 23.1493 50.6775 22.808C49.5042 22.4453 48.4588 21.9333 47.5415 21.272C46.6242 20.5893 45.8028 19.7893 45.0775 18.872L48.3735 15.128C49.4402 16.5573 50.5068 17.5173 51.5735 18.008C52.6615 18.4987 53.7815 18.744 54.9335 18.744C55.5095 18.744 56.0322 18.6693 56.5015 18.52C56.9708 18.3707 57.3335 18.1573 57.5895 17.88C57.8455 17.5813 57.9735 17.2187 57.9735 16.792C57.9735 16.472 57.8882 16.184 57.7175 15.928C57.5682 15.672 57.3548 15.448 57.0775 15.256C56.8002 15.064 56.4695 14.8933 56.0855 14.744C55.7015 14.5733 55.2962 14.4347 54.8695 14.328C54.4428 14.2 54.0055 14.0933 53.5575 14.008C52.3202 13.7307 51.2428 13.3893 50.3255 12.984C49.4082 12.5787 48.6402 12.088 48.0215 11.512C47.4242 10.9147 46.9762 10.2427 46.6775 9.496C46.3788 8.728 46.2295 7.87467 46.2295 6.936C46.2295 5.93333 46.4535 5.016 46.9015 4.184C47.3708 3.33067 47.9895 2.60533 48.7575 2.008C49.5468 1.38933 50.4535 0.919998 51.4775 0.599998C52.5015 0.258666 53.5682 0.0879993 54.6775 0.0879993C56.1495 0.0879993 57.4082 0.247999 58.4535 0.567999C59.5202 0.866666 60.4268 1.304 61.1735 1.88C61.9415 2.456 62.5922 3.14933 63.1255 3.96L59.7655 7.192C59.3175 6.63733 58.8268 6.17867 58.2935 5.816C57.7815 5.45333 57.2268 5.176 56.6295 4.984C56.0535 4.792 55.4562 4.696 54.8375 4.696C54.1975 4.696 53.6428 4.78133 53.1735 4.952C52.7255 5.10133 52.3735 5.32533 52.1175 5.624C51.8615 5.90133 51.7335 6.24267 51.7335 6.648C51.7335 7.01067 51.8402 7.32 52.0535 7.576C52.2668 7.832 52.5548 8.06667 52.9175 8.28C53.2802 8.472 53.6962 8.64267 54.1655 8.792C54.6348 8.92 55.1255 9.02667 55.6375 9.112C56.8108 9.34667 57.8668 9.656 58.8055 10.04C59.7655 10.424 60.5868 10.8933 61.2695 11.448C61.9735 12.0027 62.5068 12.664 62.8695 13.432C63.2535 14.1787 63.4455 15.0533 63.4455 16.056C63.4455 17.6133 63.0615 18.936 62.2935 20.024C61.5468 21.0907 60.5122 21.912 59.1895 22.488C57.8882 23.0427 56.3842 23.32 54.6775 23.32ZM72.3988 23V5.4H65.7428V0.599998H84.6548V5.4H77.8388V23H72.3988ZM1.816 63V40.6H11.192C12.8347 40.6 14.3387 40.8773 15.704 41.432C17.0693 41.9653 18.2427 42.7333 19.224 43.736C20.2267 44.7387 20.9947 45.9227 21.528 47.288C22.0613 48.6533 22.328 50.1573 22.328 51.8C22.328 53.4427 22.0613 54.9573 21.528 56.344C20.9947 57.7093 20.2267 58.8933 19.224 59.896C18.2427 60.8773 17.0693 61.6453 15.704 62.2C14.3387 62.7333 12.8347 63 11.192 63H1.816ZM7.256 59.288L6.52 58.2H11.032C11.928 58.2 12.728 58.0507 13.432 57.752C14.136 57.432 14.7333 56.9947 15.224 56.44C15.736 55.8853 16.1307 55.2133 16.408 54.424C16.6853 53.6347 16.824 52.76 16.824 51.8C16.824 50.84 16.6853 49.9653 16.408 49.176C16.1307 48.3867 15.736 47.7147 15.224 47.16C14.7333 46.6053 14.136 46.1787 13.432 45.88C12.728 45.56 11.928 45.4 11.032 45.4H6.424L7.256 44.376V59.288ZM36.7428 63.32C35.0361 63.32 33.4788 63.032 32.0708 62.456C30.6628 61.88 29.4361 61.0693 28.3908 60.024C27.3454 58.9787 26.5348 57.752 25.9588 56.344C25.3828 54.936 25.0948 53.3893 25.0948 51.704C25.0948 50.0187 25.3828 48.472 25.9588 47.064C26.5348 45.656 27.3454 44.4293 28.3908 43.384C29.4361 42.3387 30.6628 41.528 32.0708 40.952C33.4788 40.376 35.0254 40.088 36.7108 40.088C38.3961 40.088 39.9428 40.376 41.3507 40.952C42.7588 41.528 43.9854 42.3387 45.0308 43.384C46.0761 44.4293 46.8761 45.656 47.4308 47.064C48.0068 48.472 48.2948 50.0187 48.2948 51.704C48.2948 53.368 48.0068 54.9147 47.4308 56.344C46.8761 57.752 46.0761 58.9787 45.0308 60.024C43.9854 61.0693 42.7588 61.88 41.3507 62.456C39.9428 63.032 38.4068 63.32 36.7428 63.32ZM36.7108 58.2C37.5854 58.2 38.3854 58.04 39.1108 57.72C39.8574 57.4 40.4974 56.952 41.0308 56.376C41.5854 55.7787 42.0121 55.0853 42.3108 54.296C42.6094 53.5067 42.7588 52.6427 42.7588 51.704C42.7588 50.7653 42.6094 49.9013 42.3108 49.112C42.0121 48.3227 41.5854 47.64 41.0308 47.064C40.4974 46.4667 39.8574 46.008 39.1108 45.688C38.3854 45.368 37.5854 45.208 36.7108 45.208C35.8361 45.208 35.0254 45.368 34.2788 45.688C33.5534 46.008 32.9134 46.4667 32.3588 47.064C31.8041 47.64 31.3774 48.3227 31.0788 49.112C30.8014 49.9013 30.6628 50.7653 30.6628 51.704C30.6628 52.6427 30.8014 53.5173 31.0788 54.328C31.3774 55.1173 31.8041 55.8 32.3588 56.376C32.9134 56.952 33.5534 57.4 34.2788 57.72C35.0254 58.04 35.8361 58.2 36.7108 58.2ZM1.368 103V98.424H5.144V85.176H1.368V80.6H14.392V85.176H10.584V98.424H14.392V103H1.368ZM24.43 103V85.4H17.774V80.6H36.686V85.4H29.87V103H24.43ZM41.0468 94.84C40.8761 93.5387 40.7054 92.1947 40.5348 90.808C40.3641 89.4213 40.2254 88.0453 40.1188 86.68C40.0121 85.3147 39.9588 84.0027 39.9588 82.744V80.248H45.3668V82.744C45.3668 84.024 45.3134 85.3573 45.2068 86.744C45.1001 88.1307 44.9614 89.5173 44.7908 90.904C44.6201 92.2693 44.4388 93.5813 44.2468 94.84H41.0468ZM42.6468 103.352C41.7721 103.352 41.0894 103.107 40.5988 102.616C40.1081 102.125 39.8628 101.421 39.8628 100.504C39.8628 99.6507 40.1188 98.9573 40.6308 98.424C41.1428 97.8907 41.8148 97.624 42.6468 97.624C43.5214 97.624 44.1934 97.88 44.6628 98.392C45.1534 98.8827 45.3988 99.5867 45.3988 100.504C45.3988 101.336 45.1428 102.019 44.6308 102.552C44.1188 103.085 43.4574 103.352 42.6468 103.352Z" fill="#583528"/>
</svg>
