<svg width="24" height="24" viewBox="0 0 24 24" fill="none" xmlns="http://www.w3.org/2000/svg">
<g id="Group">
<path id="Vector 2" d="M12.5 16.5V3.5L10 10H4L9 13.5L7 20L12.5 16.5Z" fill="#3A1C16"/>
<path id="SF Symbol / star.fill" d="M6.84457 20.0707L6.8446 20.0706L6.83848 20.066C6.77028 20.0144 6.7354 19.9578 6.72105 19.8708C6.70399 19.7675 6.71406 19.5983 6.80245 19.3402L6.80337 19.3375L8.53823 14.1744L8.65576 13.8246L8.35619 13.6092L3.92357 10.4217L3.92357 10.4217L3.92103 10.4199C3.69701 10.2609 3.58407 10.1293 3.5344 10.0341C3.49431 9.95717 3.49089 9.8994 3.5157 9.82648L3.51664 9.82364C3.53978 9.75423 3.57831 9.70556 3.65994 9.6641C3.75636 9.61511 3.92477 9.57258 4.19792 9.57614L4.20136 9.57616L9.63837 9.60937L10.0062 9.61161L10.1179 9.26107L11.7689 4.07564C11.769 4.07525 11.7691 4.07485 11.7693 4.07446C11.8562 3.80695 11.949 3.65889 12.0247 3.5827C12.0865 3.52045 12.1406 3.5 12.2147 3.5C12.2955 3.5 12.3516 3.52242 12.4131 3.5839C12.4888 3.6596 12.5814 3.80686 12.6684 4.07446C12.6685 4.07485 12.6686 4.07525 12.6687 4.07564L14.3198 9.26107L14.4314 9.61161L14.7993 9.60937L20.2363 9.57617L20.2397 9.57613C20.5129 9.57258 20.6813 9.61511 20.7777 9.6641C20.8582 9.70501 20.8968 9.75293 20.9201 9.82088C20.9439 9.89737 20.9389 9.95886 20.8991 10.0359C20.8501 10.131 20.739 10.262 20.5166 10.4199L20.5141 10.4217L16.0814 13.6092L15.7819 13.8246L15.8994 14.1744L17.6343 19.3375L17.6352 19.3402C17.7236 19.5983 17.7336 19.7675 17.7166 19.8708C17.7022 19.9578 17.6674 20.0144 17.5991 20.066L17.5977 20.0671C17.5384 20.1123 17.4867 20.1261 17.4034 20.112C17.2975 20.094 17.1362 20.0266 16.9089 19.8618C16.9085 19.8615 16.9082 19.8613 16.9078 19.861L12.5105 16.6335L12.2144 16.4162L11.9185 16.6338L7.52985 19.861C7.52944 19.8613 7.52903 19.8616 7.52862 19.8619C7.30272 20.0257 7.13924 20.0937 7.03151 20.1119C6.94513 20.1265 6.89628 20.1111 6.84457 20.0707ZM4.20441 9.07617C3.56525 9.06787 3.17511 9.26709 3.0423 9.66553L4.20441 9.07617Z" stroke="#3A1C16"/>
</g>
</svg>
