<svg width="24" height="24" viewBox="0 0 24 24" fill="none" xmlns="http://www.w3.org/2000/svg">
<g id="Group">
<path id="SF Symbol / star.fill" d="M6.53693 20.4648C6.87726 20.7305 7.3089 20.6392 7.82355 20.2656L12.2147 17.0366L16.6141 20.2656C17.1287 20.6392 17.5521 20.7305 17.9007 20.4648C18.241 20.2075 18.3157 19.7842 18.1082 19.1782L16.3734 14.0151L20.806 10.8276C21.3206 10.4624 21.5281 10.0806 21.3953 9.66553C21.2625 9.26709 20.8724 9.06787 20.2332 9.07617L14.7962 9.10938L13.1444 3.92139C12.9451 3.30713 12.6463 3 12.2147 3C11.7913 3 11.4925 3.30713 11.2933 3.92139L9.64142 9.10938L4.20441 9.07617C3.56525 9.06787 3.17511 9.26709 3.0423 9.66553C2.90119 10.0806 3.11701 10.4624 3.63166 10.8276L8.06427 14.0151L6.32941 19.1782C6.12189 19.7842 6.1966 20.2075 6.53693 20.4648Z" fill="#3A1C16"/>
</g>
</svg>
