<svg width="26" height="26" viewBox="0 0 26 26" fill="none" xmlns="http://www.w3.org/2000/svg">
<circle cx="13" cy="13" r="13" fill="#734937"/>
<circle cx="11" cy="11" r="11" fill="white" transform="translate(2, 2.1)"/>
<path d="M8.93324 14.6L7.9999 13.6667L10.3666 11.3L4.6999 5.63336L2.33324 8.00002L1.3999 7.06669L2.33324 6.10002L1.3999 5.16669L2.7999 3.76669L1.86657 2.80002L2.7999 1.86669L3.76657 2.80002L5.16657 1.40002L6.0999 2.33336L7.06657 1.40002L7.9999 2.33336L5.63324 4.70002L11.2999 10.3667L13.6666 8.00002L14.5999 8.93336L13.6666 9.90002L14.5999 10.8334L13.1999 12.2334L14.1332 13.2L13.1999 14.1334L12.2332 13.2L10.8332 14.6L9.8999 13.6667L8.93324 14.6Z" fill="#734937" transform="translate(5, 5.1)"/>
</svg>
