<svg width="56" height="56" viewBox="0 0 56 56" fill="none" xmlns="http://www.w3.org/2000/svg">
<rect width="56" height="56" rx="28" fill="#D9D9D9"/>
<path d="M28 27.9999C25.9466 27.9999 24.1889 27.2687 22.7266 25.8065C21.2644 24.3443 20.5333 22.5865 20.5333 20.5332C20.5333 18.4799 21.2644 16.7221 22.7266 15.2599C24.1889 13.7976 25.9466 13.0665 28 13.0665C30.0533 13.0665 31.8111 13.7976 33.2733 15.2599C34.7355 16.7221 35.4666 18.4799 35.4666 20.5332C35.4666 22.5865 34.7355 24.3443 33.2733 25.8065C31.8111 27.2687 30.0533 27.9999 28 27.9999ZM13.0667 42.9332V37.7065C13.0667 36.6487 13.3389 35.6765 13.8833 34.7899C14.4278 33.9032 15.1511 33.2265 16.0533 32.7599C17.9822 31.7954 19.9422 31.0721 21.9333 30.5899C23.9244 30.1076 25.9466 29.8665 28 29.8665C30.0533 29.8665 32.0755 30.1076 34.0666 30.5899C36.0578 31.0721 38.0178 31.7954 39.9466 32.7599C40.8489 33.2265 41.5722 33.9032 42.1166 34.7899C42.6611 35.6765 42.9333 36.6487 42.9333 37.7065V42.9332H13.0667ZM16.8 39.1999H39.2V37.7065C39.2 37.3643 39.1144 37.0532 38.9433 36.7732C38.7722 36.4932 38.5466 36.2754 38.2666 36.1199C36.5866 35.2799 34.8911 34.6499 33.18 34.2299C31.4689 33.8099 29.7422 33.5999 28 33.5999C26.2578 33.5999 24.5311 33.8099 22.82 34.2299C21.1089 34.6499 19.4133 35.2799 17.7333 36.1199C17.4533 36.2754 17.2278 36.4932 17.0566 36.7732C16.8855 37.0532 16.8 37.3643 16.8 37.7065V39.1999ZM28 24.2665C29.0266 24.2665 29.9055 23.901 30.6366 23.1699C31.3678 22.4387 31.7333 21.5599 31.7333 20.5332C31.7333 19.5065 31.3678 18.6276 30.6366 17.8965C29.9055 17.1654 29.0266 16.7999 28 16.7999C26.9733 16.7999 26.0944 17.1654 25.3633 17.8965C24.6322 18.6276 24.2666 19.5065 24.2666 20.5332C24.2666 21.5599 24.6322 22.4387 25.3633 23.1699C26.0944 23.901 26.9733 24.2665 28 24.2665Z" fill="#BDBDBD"/>
</svg>
