<svg width="156" height="115" viewBox="0 0 156 115" fill="none" xmlns="http://www.w3.org/2000/svg">
<path d="M74.6479 41.1397H19.6966L9.48179 52.4532V41.1397H0V0H74.6479V41.1397Z" fill="#E5E5E5"/>
<path d="M62.4077 12.0848H12.2402V14.3132H62.4077V12.0848Z" fill="white"/>
<path d="M62.4077 19.4557H12.2402V21.6841H62.4077V19.4557Z" fill="white"/>
<path d="M62.4077 26.8267H12.2402V29.0551H62.4077V26.8267Z" fill="white"/>
<path d="M9.63293 59.3778C10.6749 59.3778 11.5195 58.538 11.5195 57.502C11.5195 56.4659 10.6749 55.6261 9.63293 55.6261C8.59099 55.6261 7.74634 56.4659 7.74634 57.502C7.74634 58.538 8.59099 59.3778 9.63293 59.3778Z" fill="#E6E6E6"/>
<path d="M131.767 112.606H129.653L128.648 104.499H131.767L131.767 112.606Z" fill="#9F616A"/>
<path d="M132.306 114.643L125.49 114.643V114.557C125.491 113.858 125.77 113.187 126.268 112.692C126.765 112.198 127.44 111.92 128.143 111.92L132.307 111.92L132.306 114.643Z" fill="#A38E8F"/>
<path d="M111.165 112.439L109.161 111.771L110.799 103.767L113.757 104.753L111.165 112.439Z" fill="#9F616A"/>
<path d="M111.025 114.542L104.562 112.387L104.59 112.306C104.813 111.643 105.293 111.095 105.923 110.783C106.553 110.471 107.281 110.421 107.948 110.643L111.895 111.959L111.025 114.542Z" fill="#A38E8F"/>
<path d="M113.771 70.7081L109.193 109.211L113.683 109.587C113.683 109.587 120.745 71.732 122.922 76.2163C125.099 80.7005 127.767 108.747 127.767 108.747H132.223C132.223 108.747 133.366 64.9868 128.7 62.822L113.771 70.7081Z" fill="#A38E8F"/>
<path d="M125.635 38.9873C126.068 36.5483 124.429 34.2228 121.976 33.7931C119.523 33.3634 117.185 34.9923 116.752 37.4313C116.32 39.8703 117.959 42.1959 120.411 42.6256C122.864 43.0552 125.203 41.4264 125.635 38.9873Z" fill="#9F616A"/>
<path d="M118.514 44.3438L124.268 44.8076C124.268 44.8076 128.855 44.8849 130.722 46.122C132.588 47.359 128.933 55.0132 128.933 55.0132C128.933 55.0132 127.983 58.0479 128.7 59.4201C131.026 63.8726 130.681 67.3014 130.681 67.3014C130.681 67.3014 125.901 68.3886 117.658 70.5534C117.658 70.5534 112.526 72.5636 112.682 71.4812C112.837 70.3988 114.393 58.0284 114.393 58.0284V45.1942L118.514 44.3438Z" fill="#3F3D56"/>
<path d="M128.579 37.7234C128.349 36.4464 127.834 34.6349 126.685 33.2615C126.721 33.2617 126.757 33.2633 126.793 33.2622C127.188 33.2508 127.637 33.127 127.8 32.7693C127.853 32.626 127.866 32.4713 127.838 32.3213C127.811 32.1713 127.743 32.0313 127.643 31.916C127.439 31.6881 127.196 31.4989 126.924 31.3575C127.201 31.5248 127.593 31.6801 127.814 31.4445C127.871 31.3735 127.906 31.2878 127.916 31.1975C127.925 31.1073 127.909 31.0162 127.868 30.9349C127.784 30.7736 127.666 30.6322 127.523 30.5203C127.057 30.1107 126.547 29.7531 126.003 29.454C125.581 29.2225 125.027 29.0366 124.649 29.3328C124.264 29.6344 124.325 30.2219 124.424 30.6995C124.209 30.5741 123.966 30.5013 123.716 30.4871C123.592 30.4835 123.47 30.5229 123.371 30.5984C123.272 30.674 123.202 30.7812 123.173 30.9019C123.17 30.9972 123.191 31.0917 123.235 31.1764C123.279 31.2612 123.344 31.3331 123.424 31.3855C121.937 31.1423 120.037 31.4182 117.608 32.5357C117.608 32.5357 115.253 33.3163 115.133 36.3991C115.121 36.8921 115.176 37.3845 115.297 37.8629C115.43 38.4217 115.902 41.1633 115.336 42.2712L118.172 43.2761L118.204 41.5868C116 38.4228 117.089 37.2617 117.947 35.3588C117.949 35.3553 117.951 35.3523 117.954 35.3501C117.957 35.3479 117.961 35.3466 117.964 35.3463C117.968 35.346 117.972 35.3468 117.975 35.3485C117.979 35.3502 117.981 35.3528 117.983 35.3561C118.142 35.6267 118.75 36.5543 120.842 36.5543L120.033 35.7506C120.033 35.7506 123.59 37.1973 124.883 37.1973C124.883 37.1973 125.853 37.8403 124.883 38.8048C123.913 39.7692 121.79 41.1888 122.922 42.957C124.054 44.7252 123.956 45.3525 123.956 45.3525L126.543 43.9058C126.543 43.9058 128.123 40.7977 128.403 39.8825C128.633 39.1869 128.694 38.4468 128.579 37.7234Z" fill="#A38E8F"/>
<path d="M97.4985 72.5709H148.956V100.93H142.42V108.729L135.379 100.93H97.4985V72.5709Z" fill="#D7AF66"/>
<path d="M140.518 80.9014H105.936V82.4375H140.518V80.9014Z" fill="white"/>
<path d="M140.518 85.9824H105.936V87.5185H140.518V85.9824Z" fill="white"/>
<path d="M140.518 91.0634H105.936V92.5995H140.518V91.0634Z" fill="white"/>
<path d="M131.285 54.3997L128.267 55.1292L128.244 61.2027L124.85 72.8526C124.578 73.0662 124.37 73.3498 124.249 73.6725C124.128 73.9952 124.098 74.3447 124.163 74.6831C124.227 75.0216 124.384 75.3359 124.616 75.5921C124.847 75.8483 125.145 76.0365 125.476 76.1363C125.808 76.2362 126.161 76.2438 126.496 76.1584C126.832 76.073 127.137 75.8978 127.38 75.6519C127.623 75.406 127.793 75.0987 127.872 74.7634C127.951 74.4281 127.937 74.0776 127.83 73.75L131.888 61.6898L131.285 54.3997Z" fill="#9F616A"/>
<path d="M111.198 54.272L114.818 55.3006L114.841 61.3742L118.236 73.024C118.508 73.2377 118.715 73.5213 118.836 73.844C118.957 74.1667 118.987 74.5162 118.923 74.8546C118.858 75.193 118.702 75.5074 118.47 75.7635C118.239 76.0197 117.941 76.2079 117.609 76.3078C117.278 76.4076 116.925 76.4152 116.589 76.3298C116.254 76.2444 115.948 76.0693 115.706 75.8234C115.463 75.5774 115.293 75.2702 115.214 74.9349C115.134 74.5996 115.149 74.2491 115.256 73.9214L111.198 61.8612V54.272Z" fill="#9F616A"/>
<path d="M126.756 45.5035L127.504 45.261C127.924 45.1248 128.381 45.1563 128.778 45.3489C128.778 45.3489 130.955 45.5035 131.266 47.0498C131.577 48.5961 132.334 62.1115 132.334 62.1115L127.722 60.6525L126.756 45.5035Z" fill="#3F3D56"/>
<path d="M116.259 45.5035L114.935 45.4373L114.516 45.2289C114.516 45.2289 112.06 45.5035 111.749 47.0498C111.438 48.5961 110.533 62.5284 110.533 62.5284L115.145 61.2778L116.259 45.5035Z" fill="#3F3D56"/>
</svg>
