<svg width="112" height="93" viewBox="0 0 112 93" fill="none" xmlns="http://www.w3.org/2000/svg">
<g clip-path="url(#clip0_1012_4021)">
<path d="M111.591 92.6842C111.073 91.7467 109.64 91.3106 108.711 90.9781C106.647 90.2388 104.488 89.7562 102.343 89.3174C99.2782 88.6902 96.1849 88.2014 93.0863 87.7735C89.3037 87.2512 85.5077 86.8268 81.706 86.4708C77.407 86.0683 73.1011 85.7509 68.7883 85.5188C64.223 85.2696 59.6539 85.1116 55.0809 85.0448C50.4825 84.9802 45.8821 85.0127 41.2857 85.1696C36.8851 85.3198 32.4868 85.5825 28.1045 86.0139C24.1461 86.4036 20.1956 86.9264 16.2901 87.6854C12.9477 88.3349 9.62104 89.1507 6.41991 90.3214C5.75102 90.566 5.08899 90.8281 4.43381 91.1076L4.74258 91.345C5.9288 88.4353 7.23487 84.8807 5.38163 81.9413C4.66658 80.8071 3.37781 79.823 1.96752 80.0035C0.824608 80.1498 -0.300001 81.3146 0.0727454 82.5258C0.395298 83.5738 1.85641 84.056 2.66206 83.269C2.69044 83.2393 2.70955 83.2019 2.71709 83.1614C2.72463 83.121 2.72026 83.0793 2.70452 83.0413C2.68878 83.0033 2.66234 82.9706 2.62842 82.9474C2.5945 82.9241 2.55456 82.9112 2.51344 82.9102C0.99547 83.0312 0.518613 84.8516 1.01999 86.086C1.79708 87.9994 4.38239 88.0073 6.08712 87.8022C6.35237 87.7703 6.35558 87.3495 6.08712 87.3818C4.63713 87.5563 2.51855 87.6625 1.58675 86.2688C0.968631 85.3442 1.15268 83.4391 2.51344 83.3306L2.36481 82.9718C1.90375 83.4221 1.15714 83.2739 0.7364 82.8337C0.169272 82.2404 0.472765 81.3471 1.0294 80.8622C2.40945 79.6598 4.29332 80.9612 5.06274 82.2234C6.78791 85.0536 5.46834 88.4586 4.33721 91.2333C4.25865 91.426 4.50131 91.5323 4.64598 91.4706C7.6181 90.2042 10.7492 89.3227 13.8965 88.6148C17.6477 87.7917 21.4395 87.166 25.2562 86.7404C29.5124 86.2432 33.7887 85.9246 38.0684 85.7211C42.5685 85.5071 47.0744 85.4225 51.5793 85.4354C56.1354 85.4485 60.69 85.558 65.243 85.7638C69.6042 85.9572 73.9607 86.2333 78.3126 86.592C82.2332 86.9167 86.1488 87.3101 90.0528 87.796C93.3563 88.2072 96.6538 88.682 99.9292 89.2788C102.342 89.7184 104.757 90.2096 107.112 90.9029C108.362 91.2711 109.894 91.6609 110.906 92.527C111.036 92.6286 111.145 92.754 111.228 92.8964C111.359 93.1333 111.722 92.9215 111.591 92.6842Z" fill="white"/>
<path d="M63.1754 21.1436L71.8421 26.1037C72.2099 26.3127 72.6451 26.3688 73.0539 26.2598C73.4627 26.1507 73.8122 25.8854 74.027 25.5209C74.1382 25.3324 74.2098 25.1232 74.2374 24.9061C74.2651 24.689 74.2482 24.4685 74.1879 24.2581C74.1276 24.0477 74.025 23.8518 73.8865 23.6824C73.748 23.5129 73.5764 23.3735 73.3823 23.2725L64.2217 18.3961L58.7804 15.1985C58.8182 14.9121 58.7671 14.6211 58.6338 14.3649C58.5005 14.1086 58.2916 13.8997 58.0354 13.7663C57.7792 13.633 57.4882 13.5817 57.2019 13.6195C56.9155 13.6573 56.6478 13.7824 56.435 13.9777C56.2222 14.1729 56.0747 14.429 56.0125 14.711C55.9503 14.9931 55.9764 15.2874 56.0873 15.5541C56.1983 15.8207 56.3886 16.0468 56.6324 16.2015C56.8763 16.3563 57.1619 16.4322 57.4504 16.419L63.1754 21.1436Z" fill="#FFB6B6"/>
<path d="M69.6205 25.8893C69.6457 25.9902 69.7034 26.0801 69.7847 26.1452C69.8659 26.2102 69.9663 26.2467 70.0704 26.2492C70.1987 26.2547 70.3221 26.3 70.4234 26.379C70.4428 26.3945 70.4611 26.4113 70.4783 26.4292C70.5794 26.5396 70.7056 26.624 70.8463 26.6752C70.987 26.7264 71.1379 26.7428 71.2863 26.7232C71.7738 26.6515 72.3423 26.8204 72.8127 27.0305C73.3274 27.2604 73.8375 27.5217 74.3923 27.6217C75.1926 27.766 76.1356 27.5185 76.3594 26.5315C76.4482 26.1102 76.3889 25.6712 76.1918 25.2885C75.7902 24.4829 75.0059 23.9978 74.2512 23.541L74.6384 23.5759C73.8054 23.0913 73.0788 22.4434 72.5023 21.6712C72.4262 21.8752 72.1023 21.8546 71.9621 21.6879C71.8219 21.5213 71.8056 21.2876 71.7684 21.0731C71.7214 20.8026 71.5933 20.4963 71.2563 20.5173C71.1759 20.5245 71.0978 20.5484 71.027 20.5873C70.9561 20.6262 70.8941 20.6793 70.8448 20.7433C69.8875 21.9331 69.1866 23.3079 68.7861 24.7815C68.6973 25.1089 68.6278 25.4755 68.7902 25.7732C68.9525 26.071 69.4477 26.1811 69.6205 25.8893Z" fill="#734937"/>
<path d="M49.0336 45.1932C48.5425 45.167 48.0683 45.0049 47.664 44.725C47.2597 44.4451 46.9411 44.0583 46.7438 43.6078C46.2925 42.6009 46.4541 41.4087 47.0093 40.4786C47.5884 39.5084 48.4944 38.9342 49.4735 38.4265C50.3707 37.9612 51.337 37.4158 51.746 36.4352C51.9294 36.009 51.9534 35.5311 51.8138 35.0887C51.7476 34.8806 51.6425 34.6869 51.5041 34.518C51.3421 34.3465 51.1451 34.2119 50.9266 34.1231C50.7131 34.0124 50.6134 33.8053 50.5074 33.5994C50.3897 33.3711 50.2613 33.1507 50.1324 32.9285C49.8261 32.4007 49.5319 31.8661 49.2499 31.3247C48.1187 29.166 47.2022 26.9015 46.5138 24.5636C45.2278 20.1549 44.8264 15.4134 45.9033 10.9162C46.4179 8.76665 47.2584 6.66083 48.497 4.82285C49.6385 3.12887 51.2046 1.63185 53.1654 0.954985C55.0501 0.304409 57.3539 0.367756 58.968 1.6552C60.2937 2.71264 61.0729 4.56178 60.7134 6.2453C60.6264 6.65356 60.4709 7.04414 60.2535 7.40048L60.6377 7.56244C61.5749 5.04126 64.718 4.09401 67.1408 4.7836C70.1024 5.62657 71.6741 8.80736 71.8099 11.6924C71.9766 15.2321 70.1127 18.4953 67.9193 21.1338C65.661 23.831 63.0199 26.1831 60.0801 28.1151C57.1559 30.0512 53.9708 31.5609 50.6207 32.5986C50.2061 32.7265 49.7892 32.8469 49.3702 32.9599C49.3182 32.9762 49.2745 33.012 49.2484 33.0599C49.2223 33.1078 49.2158 33.1639 49.2303 33.2165C49.2448 33.2691 49.2791 33.314 49.3261 33.3417C49.373 33.3695 49.4289 33.3779 49.4819 33.3652C53.0071 32.409 56.3726 30.9402 59.4708 29.0057C62.5756 27.0749 65.3768 24.694 67.7828 21.941C70.1213 19.2524 72.1997 15.9423 72.2407 12.2653C72.2744 9.24084 70.8555 5.85177 67.9155 4.61263C65.475 3.58404 62.1727 4.24569 60.6795 6.54658C60.4977 6.83062 60.3477 7.13382 60.2323 7.45068C60.1472 7.67954 60.4964 7.81018 60.6165 7.61265C61.5678 6.04765 61.3128 4.02421 60.3289 2.53744C59.2094 0.845978 57.2311 0.051838 55.2425 0.134082C50.6257 0.325021 47.6659 4.4952 46.2074 8.45551C44.5612 12.9251 44.5361 17.861 45.5469 22.4768C46.0939 24.9268 46.8966 27.3126 47.9418 29.5949C48.4681 30.756 49.0495 31.8898 49.6862 32.9965C49.8207 33.2306 49.9646 33.4599 50.0878 33.7002C50.1832 33.9235 50.3129 34.1306 50.4721 34.3139C50.6453 34.4863 50.8918 34.5253 51.0761 34.6766C51.264 34.8486 51.3927 35.0755 51.4439 35.325C51.7148 36.4382 50.6761 37.2825 49.8231 37.7638C49.2921 38.0633 48.7313 38.3109 48.2216 38.6475C47.7752 38.9386 47.3762 39.2967 47.0387 39.7091C46.3541 40.5572 45.9642 41.6328 46.0851 42.7295C46.133 43.2398 46.3006 43.7316 46.5744 44.165C46.8482 44.5983 47.2204 44.9609 47.6608 45.2233C48.0787 45.4656 48.5506 45.5997 49.0336 45.6136C49.3042 45.6213 49.3039 45.201 49.0336 45.1932Z" fill="#A02400"/>
<path d="M30.2063 42.2748L32.1681 31.7653L38.3336 31.2048L42.381 42.6411L30.2063 42.2748Z" fill="#A0616A"/>
<path d="M73.7858 32.6061L68.7412 43.6761L80.4418 44.8997L83.5946 31.4851L73.7858 32.6061Z" fill="#FFB6B6"/>
<path d="M91.6717 76.2163L90.6417 77.3662L85.6174 73.8519L87.1377 72.1548L91.6717 76.2163Z" fill="#FFB6B6"/>
<path d="M90.2457 81.5496C90.3821 81.6715 90.5614 81.7344 90.7441 81.7244C90.9268 81.7144 91.0981 81.6323 91.2204 81.4962L93.2682 79.2098L92.806 78.0867L93.758 78.6622L94.5313 77.8L91.408 75.439L91.1215 75.7236L89.9503 76.8821L89.5732 77.2565L90.3961 77.9936L90.0215 80.9491C90.0075 81.0599 90.0206 81.1724 90.0597 81.2769C90.0987 81.3815 90.1625 81.4751 90.2457 81.5496Z" fill="#734937"/>
<path d="M71.6663 86.6955L70.1235 86.7525L69.1643 80.6966L71.4411 80.6124L71.6663 86.6955Z" fill="#FFB6B6"/>
<path d="M66.8381 89.3722C66.8451 89.5551 66.9243 89.7277 67.0583 89.8523C67.1924 89.9768 67.3704 90.0431 67.5533 90.0366L70.6205 89.9229L71.1079 88.8105L71.3547 89.8951L72.5121 89.853L72.0427 85.9659L71.639 85.9574L69.9921 85.9189L69.4608 85.9075L69.5017 87.0115L67.1146 88.794C67.0252 88.8608 66.9533 88.9483 66.9051 89.049C66.857 89.1497 66.834 89.2606 66.8381 89.3722Z" fill="#734937"/>
<path d="M80.7952 42.7581H69.1956L65.5181 50.8226C65.5181 50.8226 62.6882 64.4952 64.257 67.918C65.7983 71.281 68.741 83.1918 68.741 83.1918L71.8238 82.4911L72.5244 80.3892C72.5244 80.3892 71.3414 78.423 71.6837 77.7268C72.0259 77.0307 70.8429 77.0262 70.8429 77.0262C70.8429 77.0262 70.8614 76.5647 70.983 75.2046C71.1046 73.8444 69.862 65.3957 69.862 65.3957L74.0658 52.2238L80.7952 42.7581Z" fill="#734937"/>
<path d="M71.6594 45.4369L74.0658 52.2238L72.672 63.6282C72.6267 63.9983 72.6753 64.3739 72.8131 64.7203C72.951 65.0668 73.1738 65.373 73.4609 65.6108L86.397 76.3255L89.3396 72.9625L88.391 72.1549C88.391 72.1549 86.8492 71.6528 87.2536 71.1867C87.6581 70.7205 86.252 70.3339 86.252 70.3339C86.252 70.3339 86.0225 71.3089 85.1588 69.4033C84.2951 67.4976 79.0983 64.2438 79.0983 64.2438C79.0983 64.2438 86.2568 49.141 80.7952 42.7581L71.6594 45.4369Z" fill="#734937"/>
<path d="M19.6069 74.3948L20.637 75.5447L25.6612 72.0303L24.1409 70.3333L19.6069 74.3948Z" fill="#A0616A"/>
<path d="M21.257 79.1275L20.8825 76.1719L21.7053 75.4348L21.3282 75.0604L20.157 73.902L19.8706 73.6173L16.7473 75.9784L17.5206 76.8405L18.4726 76.2651L18.0103 77.3882L20.0581 79.6746C20.1563 79.7841 20.287 79.8594 20.431 79.8895C20.575 79.9196 20.7249 79.9029 20.8587 79.8418C20.9926 79.7808 21.1034 79.6785 21.1751 79.55C21.2467 79.4215 21.2755 79.2734 21.257 79.1275Z" fill="#734937"/>
<path d="M33.043 80.8364L34.4459 81.4805L37.6535 76.2552L35.5829 75.3044L33.043 80.8364Z" fill="#A0616A"/>
<path d="M36.4423 84.5196L34.9211 81.9582L35.382 80.9542L34.887 80.761L33.3512 80.1653L32.975 80.0183L31.0513 83.4284L32.1041 83.911L32.7479 83.0039L32.7715 84.2181L35.5607 85.4991C35.6945 85.5605 35.8443 85.5775 35.9884 85.5477C36.1325 85.5179 36.2633 85.4429 36.3617 85.3335C36.4601 85.2242 36.521 85.0862 36.5355 84.9398C36.5501 84.7934 36.5174 84.6462 36.4423 84.5196Z" fill="#734937"/>
<path d="M30.4832 40.9364H42.0827L45.7602 49.0009C45.7602 49.0009 49.6838 63.4339 47.0214 66.0963C44.359 68.7587 37.0724 77.8669 37.0724 77.8669L34.5501 76.886L41.4163 63.574L37.2125 50.4022L30.4832 40.9364Z" fill="#734937"/>
<path d="M39.619 43.6152L37.2126 50.4022L38.6065 61.8065C38.6517 62.1767 38.6032 62.5522 38.4653 62.8987C38.3275 63.2451 38.1047 63.5513 37.8176 63.7892L25.442 72.402L23.6204 70.3001L32.1802 62.4221C32.1802 62.4221 25.0216 47.3194 30.4832 40.9364L39.619 43.6152Z" fill="#734937"/>
<path d="M81.6327 39.8927L71.4034 37.2303C71.4034 37.2303 71.7824 33.8704 71.1725 34.009C70.5627 34.1475 71.1021 33.0262 71.1021 33.0262C71.1021 33.0262 71.5436 32.6061 71.0282 31.9954C69.2654 29.9065 70.6861 27.2224 70.6861 27.2224C70.7301 25.9015 71.2359 24.6378 72.1153 23.6512C72.9948 22.6645 74.1923 22.0175 75.4995 21.8225L79.2987 21.2559C80.0887 21.2559 80.8693 21.4271 81.5868 21.7577C82.3043 22.0884 82.9416 22.5706 83.4548 23.1712C83.968 23.7719 84.3449 24.4766 84.5596 25.2368C84.7744 25.9971 84.8217 26.7949 84.6985 27.5752L81.6327 39.8927Z" fill="#734937"/>
<path d="M79.9512 22.517L74.2061 22.6572L74.7666 19.9948H78.9704L79.9512 22.517Z" fill="#734937"/>
<path d="M88.4561 35.1829L81.8936 27.6565C81.6165 27.3368 81.4762 26.9209 81.503 26.4987C81.5298 26.0765 81.7215 25.6818 82.0368 25.3997C82.1999 25.2537 82.391 25.1425 82.5985 25.0729C82.8059 25.0032 83.0254 24.9765 83.2436 24.9944C83.4617 25.0124 83.6739 25.0745 83.8672 25.1771C84.0605 25.2797 84.2309 25.4206 84.368 25.5912L90.9452 33.6183L95.1473 38.3274C95.4207 38.2342 95.7161 38.2273 95.9935 38.3078C96.2709 38.3883 96.5167 38.5522 96.6977 38.7772C96.8787 39.0023 96.986 39.2777 97.005 39.5659C97.0241 39.854 96.9539 40.1411 96.8041 40.388C96.6543 40.635 96.4322 40.8298 96.1678 40.9461C95.9034 41.0624 95.6097 41.0944 95.3264 41.0379C95.0432 40.9814 94.7842 40.8391 94.5847 40.6303C94.3852 40.4215 94.2547 40.1563 94.2112 39.8708L88.4561 35.1829Z" fill="#FFB6B6"/>
<path d="M82.5393 29.7932C82.4353 29.7883 82.3358 29.7493 82.2561 29.6824C82.1765 29.6154 82.1209 29.5242 82.0981 29.4226C82.0676 29.2979 81.9989 29.1857 81.9016 29.1019C81.8826 29.0859 81.8626 29.0712 81.8416 29.0578C81.7136 28.9804 81.6061 28.8731 81.5283 28.7452C81.4506 28.6173 81.4048 28.4725 81.395 28.3231C81.3698 27.8311 81.0927 27.3067 80.7945 26.8866C80.4681 26.4269 80.112 25.978 79.9051 25.4535C79.6068 24.697 79.6646 23.7238 80.5886 23.3108C80.9844 23.1413 81.4264 23.1133 81.8404 23.2316C82.7091 23.4675 83.3385 24.1415 83.9344 24.792L83.8243 24.4192C84.4627 25.1411 85.2404 25.7266 86.1107 26.1406C85.9255 26.2551 86.0092 26.5687 86.2001 26.6735C86.391 26.7784 86.6234 26.7485 86.841 26.7431C87.1154 26.7361 87.4409 26.8016 87.4864 27.1362C87.4951 27.2165 87.487 27.2978 87.4627 27.3749C87.4385 27.4519 87.3985 27.5231 87.3454 27.584C86.3664 28.756 85.1556 29.7128 83.789 30.3944C83.4854 30.5455 83.1396 30.6856 82.8158 30.5847C82.492 30.4838 82.2869 30.0198 82.5393 29.7932Z" fill="#734937"/>
<path d="M72.6328 14.7854C73.9118 16.9887 71.5035 20.7013 73.9307 21.4722L73.7307 21.2722C72.2656 19.4701 75.3279 15.6557 73.8628 13.8535C73.6351 13.5891 73.4397 13.2986 73.2806 12.9882L72.6328 14.7854Z" fill="#734937"/>
<path d="M82.6125 14.4514C82.6127 15.1654 82.4377 15.8687 82.1027 16.4993C81.7678 17.1299 81.2831 17.6687 80.6914 18.0683C80.0996 18.4679 79.4187 18.7162 78.7086 18.7912C77.9985 18.8663 77.2808 18.7659 76.6186 18.4988C75.9563 18.2317 75.3698 17.8062 74.9104 17.2595C74.451 16.7129 74.1328 16.0618 73.9838 15.3634C73.8347 14.6651 73.8594 13.9408 74.0556 13.2542C74.2519 12.5677 74.6136 11.9397 75.1092 11.4256L75.1301 11.4047C75.165 11.368 75.1999 11.3314 75.2365 11.2965L75.2372 11.2964L75.2378 11.296L75.2382 11.2954L75.2383 11.2947C75.2837 11.2529 75.329 11.211 75.3761 11.1709C76.0065 10.6182 76.7828 10.2589 77.6121 10.1361C78.4413 10.0132 79.2884 10.132 80.052 10.4781C80.8155 10.8242 81.4631 11.3831 81.9172 12.0878C82.3713 12.7924 82.6127 13.6131 82.6125 14.4514Z" fill="#734937"/>
<path d="M77.1751 19.1187C79.1954 19.1187 80.8332 17.4809 80.8332 15.4607C80.8332 13.4404 79.1954 11.8026 77.1751 11.8026C75.1549 11.8026 73.5171 13.4404 73.5171 15.4607C73.5171 17.4809 75.1549 19.1187 77.1751 19.1187Z" fill="#FFB8B8"/>
<path d="M79.7886 11.9436C79.222 11.4132 78.5173 11.0534 77.7555 10.9055C76.9936 10.7575 76.2054 10.8275 75.4816 11.1073C75.463 11.1156 75.4423 11.1238 75.4237 11.1321C75.3515 11.161 75.2792 11.1941 75.2069 11.2292L75.1656 11.2477V11.2539L75.1409 11.2725C75.1238 11.2881 75.1033 11.2994 75.081 11.3055C74.7632 11.2971 74.4472 11.3558 74.1537 11.4778C73.8601 11.5999 73.5957 11.7825 73.3776 12.0138C72.8118 12.6291 72.5434 13.6243 72.626 14.8136L72.6281 14.8507L72.6611 14.8714C72.6714 14.8776 72.6797 14.8838 72.69 14.89C72.9791 15.0696 73.2537 15.2286 73.52 15.369C73.6811 15.4557 73.838 15.5342 73.9949 15.6064L74.0507 15.6312C74.1105 15.6601 74.1725 15.687 74.2324 15.7138C75.7438 16.3745 77.1375 16.4778 78.4754 16.0338L78.5002 16.0256L78.9503 15.272L79.0928 15.0345C79.1238 15.2038 79.1424 15.4701 79.163 15.7758C79.1863 16.2528 79.2394 16.7279 79.322 17.1984V17.2025C79.4046 17.6196 79.5326 17.9561 79.7432 18.0676C79.7746 18.0876 79.8097 18.1009 79.8464 18.1069L80.1809 17.665L81.0605 16.5046L81.075 16.4365C81.4322 14.8239 80.916 13.0193 79.7886 11.9436Z" fill="#734937"/>
<path d="M90.1806 5.00118C89.4393 4.01835 88.7596 1.24336 87.6714 0.669366C87.562 0.611547 87.4526 0.55786 87.3411 0.508309C87.4501 0.768383 87.4711 1.05695 87.401 1.33008C87.3039 1.66458 87.0562 1.93093 86.8146 2.18282C86.1435 2.88691 85.4718 3.59031 84.7994 4.29301C85.2513 3.69441 85.5726 3.00768 85.7426 2.27718C85.9126 1.54667 85.9275 0.788625 85.7863 0.0520057C85.2255 -0.0317259 84.6543 -0.0149464 84.0994 0.101559C82.8977 0.361718 81.7952 1.17522 81.3182 2.30878C80.9114 3.26682 80.9693 4.35495 81.0993 5.38733C81.2294 6.41971 81.4297 7.46447 81.2852 8.49478C81.1427 9.52716 80.5749 10.574 79.6065 10.958C79.8212 10.828 79.8068 10.479 79.6272 10.3056C79.4808 10.1799 79.2912 10.1162 79.0986 10.128C79.0384 10.1275 78.9783 10.1324 78.9189 10.1425C78.1488 10.2643 77.5851 10.9085 77.0937 11.5155C76.9694 11.533 76.8523 11.5841 76.7551 11.6635C76.6579 11.7429 76.5844 11.8474 76.5424 11.9656C76.496 12.0901 76.496 12.2272 76.5424 12.3517C76.7055 12.7606 77.3621 12.839 77.6161 12.4798C77.5437 12.7738 77.5356 13.08 77.5922 13.3775C77.6488 13.675 77.7689 13.9568 77.9443 14.2037C78.1197 14.4506 78.3462 14.6568 78.6085 14.8083C78.8707 14.9597 79.1625 15.0529 79.464 15.0814C80.354 15.166 81.7683 15.3002 82.3568 14.625C83.2756 13.5679 84.6858 12.5087 84.8345 11.115C84.9811 9.72331 85.7512 9.99999 86.0733 8.63725C86.3954 7.27245 87.7189 6.80168 88.964 6.15954C90.3556 5.44101 88.9025 4.09269 90.1806 5.00118Z" fill="#734937"/>
<path d="M78.9229 15.2242C80.2019 17.4276 77.7935 21.1401 80.2207 21.911L80.0208 21.7111C78.5556 19.9089 81.618 16.0945 80.1528 14.2923C79.9252 14.028 79.7298 13.7375 79.5707 13.427L78.9229 15.2242Z" fill="#734937"/>
<path d="M80.904 16.4022C80.904 16.4022 79.8203 12.3574 75.1753 11.4238C75.17 11.4221 75.1526 11.4151 75.1299 11.4046C75.116 11.3959 75.0985 11.3872 75.0811 11.3784C75.1334 11.3488 75.184 11.3226 75.2364 11.2964L75.237 11.2963L75.2376 11.2959L75.238 11.2953L75.2381 11.2947C75.2835 11.2528 75.3288 11.2109 75.3759 11.1708L75.5086 11.176C75.5086 11.176 80.1693 10.4379 80.904 16.4022Z" fill="#FD6584"/>
<path d="M40.3102 34.6935L36.1652 24.5948C35.9908 24.1664 35.9919 23.6867 36.1681 23.2591C36.3444 22.8315 36.6817 22.4904 37.1072 22.3093C37.3274 22.2156 37.5643 22.1677 37.8036 22.1686C38.0428 22.1695 38.2794 22.219 38.4989 22.3143C38.7183 22.4096 38.9161 22.5486 39.0801 22.7228C39.2441 22.897 39.3709 23.1028 39.4528 23.3276L43.4369 33.9497L46.1299 40.302C46.4456 40.3017 46.7538 40.3985 47.0126 40.5793C47.2714 40.7602 47.4682 41.0163 47.5764 41.313C47.6845 41.6096 47.6987 41.9323 47.6171 42.2373C47.5354 42.5423 47.3618 42.8148 47.1199 43.0177C46.878 43.2206 46.5795 43.3441 46.265 43.3715C45.9505 43.3988 45.6351 43.3287 45.3618 43.1706C45.0885 43.0124 44.8705 42.774 44.7375 42.4877C44.6044 42.2014 44.5627 41.8811 44.618 41.5702L40.3102 34.6935Z" fill="#A0616A"/>
<path d="M36.0816 27.0336C35.9758 26.9919 35.8865 26.9166 35.8276 26.8193C35.7686 26.7219 35.7433 26.608 35.7554 26.4948C35.7677 26.355 35.736 26.2147 35.6648 26.0937C35.6508 26.0705 35.6352 26.0482 35.6182 26.027C35.5129 25.9018 35.4394 25.753 35.4039 25.5932C35.3684 25.4335 35.372 25.2675 35.4144 25.1095C35.5613 24.5913 35.459 23.9511 35.2981 23.4114C35.122 22.8207 34.9113 22.2308 34.8817 21.6152C34.839 20.7272 35.2412 19.7402 36.3429 19.6378C36.8121 19.6015 37.2795 19.7281 37.6664 19.9961C38.4826 20.5459 38.8969 21.4649 39.2849 22.3478L39.302 21.9232C39.709 22.895 40.308 23.7746 41.0632 24.5092C40.8312 24.5626 40.8075 24.9167 40.9682 25.0923C41.1289 25.2679 41.3799 25.3188 41.6072 25.3897C41.8936 25.4791 42.2075 25.6613 42.1369 26.0237C42.1176 26.1098 42.0806 26.1911 42.0284 26.2623C41.9762 26.3336 41.9098 26.3932 41.8334 26.4376C40.4078 27.3062 38.8179 27.8707 37.1638 28.0954C36.7963 28.1451 36.3891 28.1684 36.0894 27.9501C35.7897 27.7318 35.7407 27.1794 36.0816 27.0336Z" fill="#3A1C16"/>
<path d="M40.4354 37.0901L31.1604 37.2065C31.1604 37.2065 30.1203 37.1607 30.1203 36.5323C30.1203 35.9039 30.7017 35.7724 29.9397 35.2883C29.1777 34.8042 28.8635 35.1184 29.0206 34.333C29.1777 33.5475 29.3348 33.2877 29.3348 33.1034C29.3348 32.9191 29.1777 32.1336 29.1777 31.3481C29.1777 30.9673 30.4011 30.2758 30.0967 28.0442C29.7259 25.3253 29.856 21.1644 32.4768 20.3511L34.362 17.052H37.9555L39.0749 20.3511L40.4019 22.0901C40.4019 22.0901 43.0194 25.4001 42.2339 27.1282C41.4484 28.8563 40.4354 37.0901 40.4354 37.0901Z" fill="#3A1C16"/>
<path d="M48.7529 21.4392L38.2651 24.4675C37.8203 24.5944 37.3435 24.5415 36.9375 24.32C36.5315 24.0985 36.2288 23.7263 36.0949 23.2837C36.0255 23.0547 36.0036 22.8139 36.0303 22.5762C36.0571 22.3384 36.132 22.1086 36.2504 21.9007C36.3689 21.6929 36.5285 21.5113 36.7194 21.3671C36.9103 21.2229 37.1286 21.1191 37.361 21.062L48.3517 18.2504L54.9581 16.2605C54.9919 15.9466 55.1215 15.6506 55.3293 15.4129C55.5371 15.1752 55.813 15.0073 56.1196 14.9318C56.4262 14.8564 56.7486 14.8772 57.0429 14.9914C57.3373 15.1056 57.5894 15.3076 57.7649 15.57C57.9405 15.8325 58.031 16.1426 58.0241 16.4582C58.0173 16.7739 57.9134 17.0798 57.7267 17.3344C57.54 17.5889 57.2794 17.7799 56.9803 17.8812C56.6813 17.9825 56.3583 17.9893 56.0553 17.9007L48.7529 21.4392Z" fill="#A0616A"/>
<path d="M40.6803 24.8141C40.6274 24.9149 40.5429 24.9954 40.4397 25.0435C40.3366 25.0915 40.2206 25.1044 40.1094 25.0801C39.9717 25.0528 39.8289 25.0691 39.7009 25.1268C39.6763 25.1383 39.6524 25.1513 39.6295 25.1659C39.4936 25.257 39.3377 25.314 39.1751 25.332C39.0124 25.35 38.8478 25.3285 38.6953 25.2693C38.1961 25.0671 37.5485 25.0996 36.9946 25.2012C36.3884 25.3123 35.7791 25.458 35.1639 25.4208C34.2765 25.3672 33.3388 24.8606 33.3562 23.7543C33.3709 23.2839 33.5472 22.8329 33.8556 22.4773C34.4904 21.7254 35.4488 21.4129 36.3686 21.1227L35.9483 21.0597C36.9584 20.7603 37.8976 20.26 38.7097 19.5887C38.7377 19.8251 39.0871 19.887 39.279 19.7462C39.4711 19.6054 39.5488 19.3614 39.6438 19.1432C39.7637 18.8681 39.9788 18.5758 40.3314 18.6852C40.415 18.7137 40.4918 18.7592 40.5569 18.8188C40.6221 18.8785 40.6742 18.9509 40.71 19.0317C41.4193 20.5429 41.8085 22.1844 41.853 23.8532C41.8626 24.2239 41.8417 24.6312 41.5923 24.9055C41.3428 25.1798 40.7883 25.1688 40.6803 24.8141Z" fill="#3A1C16"/>
<path d="M35.5322 17.6439C37.846 17.6439 39.7217 15.7682 39.7217 13.4545C39.7217 11.1407 37.846 9.26501 35.5322 9.26501C33.2185 9.26501 31.3428 11.1407 31.3428 13.4545C31.3428 15.7682 33.2185 17.6439 35.5322 17.6439Z" fill="#A0616A"/>
<path d="M32.295 10.3572C32.3381 9.98019 32.5965 9.5142 32.7762 9.17998C32.956 8.84576 33.3031 8.57282 33.6819 8.59611C33.8366 8.61405 33.9848 8.66915 34.1136 8.75673C34.2425 8.8443 34.3483 8.96175 34.4219 9.09905C34.5665 9.37548 34.6453 9.68157 34.6521 9.99346C34.6917 10.6893 34.5755 11.3853 34.312 12.0305C34.0485 12.6758 33.6443 13.2541 33.129 13.7233C32.8353 13.9867 32.482 14.221 32.0877 14.2299C31.9086 14.2257 31.7322 14.1856 31.5688 14.1121C31.4055 14.0387 31.2584 13.9332 31.1364 13.8021C30.4982 13.1629 30.4017 12.1121 30.7425 11.2755C31.0834 10.439 31.2355 10.1135 32.0147 9.65659" fill="#734937"/>
<path d="M38.1804 16.3827C38.1103 16.7554 38.7549 18.528 38.5489 18.8475C38.5489 18.8475 36.416 19.5883 35.6005 19.6416C34.6042 19.706 33.8028 19.2973 32.871 18.6821C32.8541 18.3484 32.7575 18.0236 32.5893 17.7349C32.6034 17.9585 32.558 18.1819 32.4576 18.3823C31.0928 17.2949 30.5805 14.3047 31.9299 12.9161L33.3312 9.69316C32.9108 9.83329 34.1798 7.66822 35.518 9.23623C37.1925 7.5309 40.4364 9.98589 40.8428 12.1789C40.4517 11.6839 40.248 11.7423 40.1477 12.0836C40.0324 11.7965 39.8498 11.5413 39.6153 11.3395C39.7319 11.5701 39.7915 11.8252 39.789 12.0836C37.1477 12.2475 37.6393 14.0295 39.8043 16.6989C39.0037 16.2005 39.5439 18.3482 39.1164 18.8615C39.0954 18.5028 38.2561 16.7316 38.1804 16.3827Z" fill="#734937"/>
<path d="M34.3685 12.9505C34.3347 12.9505 34.3021 12.9382 34.2766 12.916C34.2511 12.8938 34.2345 12.8631 34.2299 12.8297C34.2252 12.7962 34.2328 12.7622 34.2512 12.7339C34.2697 12.7055 34.2977 12.6848 34.3302 12.6756C34.367 12.615 34.3519 12.3598 34.3398 12.1537C34.2943 11.3796 34.218 10.0841 35.4757 9.20964C35.4908 9.19907 35.5078 9.19159 35.5258 9.18762C35.5438 9.18364 35.5624 9.18326 35.5806 9.1865C35.5987 9.18973 35.6161 9.19651 35.6316 9.20645C35.6471 9.21639 35.6605 9.2293 35.671 9.24443C35.6816 9.25957 35.689 9.27663 35.6929 9.29464C35.6968 9.31265 35.6972 9.33126 35.6939 9.3494C35.6906 9.36754 35.6837 9.38485 35.6738 9.40034C35.6638 9.41583 35.6508 9.4292 35.6357 9.43968C34.507 10.2245 34.5747 11.3756 34.6196 12.1372C34.6452 12.5726 34.6637 12.8871 34.3996 12.947C34.3894 12.9493 34.379 12.9505 34.3685 12.9505Z" fill="#D7AF66"/>
<path d="M34.4338 11.745C33.5786 12.0999 32.6676 12.3018 31.7425 12.3415C31.0087 12.3725 30.1332 12.2089 29.8349 11.5378C29.6539 11.1306 29.7503 10.6534 29.9159 10.2397C30.0814 9.82603 30.3137 9.43518 30.4096 9.00005C30.6161 8.06266 30.1287 7.06924 29.3807 6.46771C28.6327 5.86619 27.6673 5.60074 26.7151 5.48006C27.4305 5.21461 28.1569 4.94665 28.9174 4.88298C29.6778 4.81931 30.4899 4.98462 31.0577 5.49447C31.6721 6.04622 31.9082 6.90316 32.0127 7.72231C32.1172 8.54146 32.1226 9.38509 32.4003 10.1628C32.678 10.9405 33.3158 11.6648 34.1387 11.7337" fill="#734937"/>
<path d="M99.3415 73.4908C99.3725 73.2267 99.3512 72.9592 99.2788 72.7034C99.2064 72.4476 99.0843 72.2086 98.9195 71.9999C98.7547 71.7913 98.5505 71.6172 98.3184 71.4875C98.0863 71.3578 97.831 71.2752 97.5669 71.2442C97.562 71.2436 97.5571 71.2433 97.5521 71.2428L97.5521 71.2424L97.5518 71.2427L97.5535 71.2279L97.5384 71.2261C97.5689 70.9522 97.5432 70.6748 97.4628 70.4112C97.3823 70.1475 97.2489 69.903 97.0706 69.6927C96.8923 69.4825 96.673 69.3108 96.426 69.1883C96.1791 69.0658 95.9097 68.9951 95.6344 68.9804C95.3591 68.9657 95.0837 69.0074 94.8251 69.103C94.5665 69.1985 94.3302 69.3458 94.1306 69.536C93.9309 69.7261 93.7722 69.955 93.6642 70.2086C93.5562 70.4622 93.5011 70.7353 93.5024 71.0109L93.0603 74.7771L93.0751 74.7789L93.0754 74.7786L96.8564 75.2224C97.1347 75.29 97.4242 75.2977 97.7057 75.245C97.9872 75.1922 98.2542 75.0803 98.4892 74.9166C98.7242 74.7529 98.9216 74.5411 99.0686 74.2953C99.2155 74.0495 99.3086 73.7752 99.3415 73.4908Z" fill="white"/>
<path d="M15.5991 66.4635C15.3333 66.4577 15.069 66.5044 14.8213 66.6008C14.5735 66.6972 14.3472 66.8414 14.1551 67.0253C13.9631 67.2092 13.8092 67.4291 13.7022 67.6724C13.5952 67.9158 13.5371 68.1778 13.5314 68.4436C13.5313 68.4486 13.5315 68.4535 13.5314 68.4585L13.531 68.4585L13.5314 68.4588L13.5165 68.4585L13.5161 68.4737C13.2405 68.4694 12.9669 68.5213 12.712 68.6265C12.4572 68.7316 12.2265 68.8877 12.0341 69.0851C11.8417 69.2826 11.6917 69.5172 11.5932 69.7747C11.4948 70.0322 11.4499 70.3071 11.4615 70.5826C11.473 70.858 11.5407 71.1282 11.6604 71.3765C11.7801 71.6249 11.9493 71.8461 12.1575 72.0268C12.3657 72.2074 12.6087 72.3437 12.8714 72.4271C13.1342 72.5105 13.4112 72.5394 13.6855 72.5119L17.4767 72.594L17.477 72.5791L17.4767 72.5788L17.5591 68.7727C17.5999 68.4893 17.5801 68.2004 17.5009 67.9252C17.4216 67.65 17.2848 67.3948 17.0995 67.1764C16.9142 66.9581 16.6846 66.7816 16.4259 66.6587C16.1673 66.5358 15.8854 66.4693 15.5991 66.4635Z" fill="white"/>
</g>
<defs>
<clipPath id="clip0_1012_4021">
<rect width="111.619" height="93" fill="white"/>
</clipPath>
</defs>
</svg>
