<svg width="127" height="96" viewBox="0 0 127 96" fill="none" xmlns="http://www.w3.org/2000/svg">
<g clip-path="url(#clip0_1012_2817)">
<path d="M52.3477 66.5145C52.3477 69.8277 49.7761 72.5136 46.6038 72.5136C43.4314 72.5136 40.8599 69.8277 40.8599 66.5145C40.8599 66.4394 40.861 66.3648 40.8641 66.2904C40.9223 62.9778 43.5416 60.3426 46.7132 60.4045C49.8849 60.4664 52.4079 63.2019 52.3486 66.5145H52.3477Z" fill="#3A1C16"/>
<path d="M44.5811 69.1788L42.9268 66.9718L43.3185 66.6777L44.6663 68.4756L49.9726 64.1324L50.2829 64.5118L44.5811 69.1788Z" fill="white"/>
<path d="M127 95.6558H0V96H127V95.6558Z" fill="#E6E6E6"/>
<path d="M83.6192 33.7283C83.7381 33.7826 83.8524 33.8464 83.9611 33.919L94.8258 29.2796L95.2134 26.4162L99.5547 26.3895L99.2982 32.9573L84.9578 36.7521C84.9276 36.8517 84.8914 36.9494 84.8493 37.0447C84.6419 37.4873 84.3085 37.8587 83.8908 38.1124C83.4732 38.366 82.9899 38.4905 82.5017 38.4703C82.0136 38.45 81.5423 38.2859 81.147 37.9986C80.7518 37.7112 80.4502 37.3134 80.2802 36.8551C80.1102 36.3969 80.0793 35.8986 80.1914 35.4228C80.3035 34.947 80.5536 34.515 80.9104 34.1809C81.2671 33.8469 81.7145 33.6258 82.1964 33.5454C82.6783 33.4649 83.1733 33.5287 83.6191 33.7288L83.6192 33.7283Z" fill="#A0616A"/>
<path d="M101.134 93.241H98.1637L96.751 81.7805H101.134L101.134 93.241Z" fill="#A0616A"/>
<path d="M96.0425 92.3922H101.77V95.999H92.4363C92.4363 95.0421 92.8162 94.1244 93.4925 93.4478C94.1688 92.7711 95.0861 92.391 96.0425 92.391V92.3922Z" fill="#2F2E41"/>
<path d="M112.683 92.4015L109.728 92.6924L107.199 81.4257L111.561 80.9969L112.683 92.4015Z" fill="#A0616A"/>
<path d="M107.532 92.0565L113.231 91.4949L113.584 95.0848L104.297 96C104.204 95.0479 104.492 94.0977 105.098 93.3581C105.705 92.6186 106.58 92.1504 107.532 92.0565Z" fill="#2F2E41"/>
<path d="M101.96 14.2604C105.246 14.2604 107.91 11.5954 107.91 8.30793C107.91 5.02048 105.246 2.35547 101.96 2.35547C98.6742 2.35547 96.0105 5.02048 96.0105 8.30793C96.0105 11.5954 98.6742 14.2604 101.96 14.2604Z" fill="#A0616A"/>
<path d="M97.5 90.9233C97.2447 90.9238 96.9974 90.8341 96.8018 90.6701C96.6061 90.506 96.4746 90.2781 96.4305 90.0266C94.8943 81.4911 89.8688 53.5761 89.7486 52.8023C89.7459 52.7845 89.7445 52.7666 89.7446 52.7486V50.667C89.7445 50.5912 89.7681 50.5172 89.8122 50.4556L90.476 49.5261C90.5075 49.4814 90.5489 49.4445 90.5969 49.4182C90.645 49.3919 90.6984 49.377 90.7531 49.3747C94.5379 49.1972 106.931 48.6769 107.529 49.4253C108.131 50.1766 107.917 52.4565 107.868 52.9056L107.871 52.9524L113.439 88.5784C113.483 88.8626 113.412 89.1525 113.244 89.3854C113.075 89.6183 112.822 89.7754 112.539 89.8228L109.061 90.396C108.802 90.4376 108.537 90.3848 108.313 90.2473C108.09 90.1097 107.923 89.8965 107.844 89.6464C106.768 86.2077 103.162 74.6402 101.912 70.164C101.905 70.1345 101.887 70.1086 101.862 70.0915C101.837 70.0744 101.807 70.0673 101.777 70.0716C101.747 70.0759 101.72 70.0914 101.701 70.1149C101.682 70.1384 101.672 70.1682 101.674 70.1984C101.737 74.4653 101.887 85.3513 101.941 89.1113L101.946 89.5163C101.948 89.7904 101.848 90.0555 101.664 90.259C101.481 90.4625 101.227 90.5898 100.955 90.6156L97.6013 90.9196C97.5676 90.9225 97.5338 90.9238 97.5 90.9233Z" fill="#2F2E41"/>
<path d="M98.1844 16.601C97.1461 17.2186 96.5247 18.3532 96.1683 19.5099C95.5082 21.6477 95.1109 23.858 94.9852 26.0919L94.6082 32.7806L89.9438 50.5139C93.9867 53.9361 96.3183 53.1582 101.76 50.359C107.202 47.5598 107.824 51.2922 107.824 51.2922L108.912 36.2035L110.467 19.7155C110.118 19.2951 109.723 18.9152 109.289 18.5828C107.852 17.4646 106.18 16.6873 104.399 16.3094C102.618 15.9316 100.775 15.9631 99.0079 16.4015L98.1844 16.601Z" fill="#3A1C16"/>
<path d="M96.6694 37.3096C96.7948 37.3566 96.9163 37.4133 97.0327 37.4793L107.776 32.099L107.954 29.1845L112.386 28.8788L112.623 35.5227L98.2666 40.2732C98.1495 40.7765 97.8819 41.2323 97.4996 41.5797C97.1172 41.9272 96.6382 42.15 96.1262 42.2184C95.6143 42.2868 95.0936 42.1977 94.6335 41.9628C94.1734 41.7279 93.7957 41.3584 93.5506 40.9035C93.3055 40.4486 93.2047 39.9298 93.2615 39.4161C93.3184 38.9025 93.5302 38.4183 93.8688 38.0281C94.2074 37.6378 94.6568 37.36 95.1571 37.2315C95.6574 37.103 96.185 37.1299 96.6696 37.3088L96.6694 37.3096Z" fill="#A0616A"/>
<path d="M110.389 19.7898C113.032 20.723 113.498 30.8349 113.498 30.8349C110.389 29.1239 106.657 31.9238 106.657 31.9238C106.657 31.9238 105.88 29.2791 104.947 25.8572C104.665 24.8946 104.632 23.8763 104.849 22.8972C105.066 21.9181 105.528 21.0099 106.191 20.2572C106.191 20.2572 107.746 18.856 110.389 19.7898Z" fill="#3A1C16"/>
<path d="M107.294 9.8816C106.552 9.2883 105.541 10.3663 105.541 10.3663L104.948 5.02778C104.948 5.02778 101.242 5.47203 98.8695 4.87942C96.4969 4.2868 96.1267 7.03093 96.1267 7.03093C96.0044 5.92271 95.9796 4.80589 96.0526 3.69333C96.2009 2.35836 98.128 1.02339 101.538 0.13335C104.948 -0.756688 106.727 3.10003 106.727 3.10003C109.1 4.28577 108.036 10.4756 107.294 9.8816Z" fill="#2F2E41"/>
<path d="M27.7201 7.84045C27.5785 7.84071 27.4428 7.89717 27.3427 7.99744C27.2427 8.09771 27.1865 8.23359 27.1865 8.37526C27.1865 8.51693 27.2427 8.65282 27.3427 8.75309C27.4428 8.85336 27.5785 8.90982 27.7201 8.91007H66.7478C66.8894 8.90982 67.0252 8.85336 67.1252 8.75309C67.2252 8.65282 67.2814 8.51693 67.2814 8.37526C67.2814 8.23359 67.2252 8.09771 67.1252 7.99744C67.0252 7.89717 66.8894 7.84071 66.7478 7.84045H27.7201Z" fill="white"/>
<path d="M27.72 11.0493C27.5783 11.0492 27.4425 11.1054 27.3422 11.2054C27.2419 11.3055 27.1854 11.4413 27.1851 11.583C27.1848 11.7247 27.2407 11.8607 27.3406 11.9612C27.4404 12.0617 27.5761 12.1184 27.7177 12.1189H52.3915C52.4617 12.1189 52.5312 12.1051 52.596 12.0782C52.6609 12.0513 52.7198 12.0119 52.7694 11.9623C52.8191 11.9126 52.8585 11.8537 52.8853 11.7888C52.9122 11.7239 52.926 11.6544 52.926 11.5841C52.926 11.5139 52.9122 11.4443 52.8853 11.3795C52.8585 11.3146 52.8191 11.2556 52.7694 11.206C52.7198 11.1563 52.6609 11.1169 52.596 11.09C52.5312 11.0631 52.4617 11.0493 52.3915 11.0493H27.72Z" fill="white"/>
<path d="M66.2586 3.75213C66.2586 5.04894 65.2521 6.10021 64.0104 6.10021C62.7687 6.10021 61.7622 5.04894 61.7622 3.75213C61.7622 3.72274 61.7627 3.69355 61.7639 3.6644C61.7867 2.36784 62.8118 1.33643 64.0532 1.36065C65.2947 1.38486 66.2822 2.45557 66.259 3.75213H66.2586Z" fill="#3A1C16"/>
<path d="M63.2186 4.79488L62.571 3.93106L62.7244 3.81591L63.2519 4.51964L65.3288 2.8197L65.4503 2.96818L63.2186 4.79488Z" fill="white"/>
<path d="M27.7201 27.4623C27.5785 27.4625 27.4428 27.519 27.3427 27.6193C27.2427 27.7195 27.1865 27.8554 27.1865 27.9971C27.1865 28.1388 27.2427 28.2746 27.3427 28.3749C27.4428 28.4752 27.5785 28.5316 27.7201 28.5319H66.7478C66.8894 28.5316 67.0252 28.4752 67.1252 28.3749C67.2252 28.2746 67.2814 28.1388 67.2814 27.9971C67.2814 27.8554 67.2252 27.7195 67.1252 27.6193C67.0252 27.519 66.8894 27.4625 66.7478 27.4623H27.7201Z" fill="white"/>
<path d="M27.72 30.671C27.5783 30.6709 27.4425 30.7271 27.3422 30.8271C27.2419 30.9272 27.1854 31.063 27.1851 31.2047C27.1848 31.3464 27.2407 31.4824 27.3406 31.5829C27.4404 31.6834 27.5761 31.7401 27.7177 31.7406H52.3915C52.5332 31.7406 52.6692 31.6843 52.7694 31.584C52.8697 31.4837 52.926 31.3477 52.926 31.2058C52.926 31.064 52.8697 30.928 52.7694 30.8277C52.6692 30.7274 52.5332 30.671 52.3915 30.671H27.72Z" fill="white"/>
<path d="M66.0865 23.374C66.0865 24.6708 65.0799 25.722 63.8383 25.722C62.5966 25.722 61.5901 24.6708 61.5901 23.374C61.5901 23.3446 61.5905 23.3154 61.5917 23.2862C61.6145 21.9897 62.6397 20.9583 63.8811 20.9825C65.1225 21.0067 66.1101 22.0774 66.0868 23.374H66.0865Z" fill="#3A1C16"/>
<path d="M63.0467 24.4167L62.3992 23.5529L62.5525 23.4377L63.08 24.1415L65.157 22.4415L65.2784 22.59L63.0467 24.4167Z" fill="white"/>
<path d="M27.7201 47.084C27.5785 47.0842 27.4428 47.1407 27.3427 47.241C27.2427 47.3412 27.1865 47.4771 27.1865 47.6188C27.1865 47.7605 27.2427 47.8963 27.3427 47.9966C27.4428 48.0969 27.5785 48.1533 27.7201 48.1536H66.7478C66.8894 48.1533 67.0252 48.0969 67.1252 47.9966C67.2252 47.8963 67.2814 47.7605 67.2814 47.6188C67.2814 47.4771 67.2252 47.3412 67.1252 47.241C67.0252 47.1407 66.8894 47.0842 66.7478 47.084H27.7201Z" fill="white"/>
<path d="M27.72 50.2928C27.5783 50.2927 27.4425 50.3489 27.3422 50.449C27.2419 50.549 27.1854 50.6848 27.1851 50.8265C27.1848 50.9682 27.2407 51.1043 27.3406 51.2048C27.4404 51.3052 27.5761 51.362 27.7177 51.3625H52.3915C52.5332 51.3625 52.6692 51.3061 52.7694 51.2058C52.8697 51.1055 52.926 50.9695 52.926 50.8277C52.926 50.6858 52.8697 50.5498 52.7694 50.4495C52.6692 50.3492 52.5332 50.2928 52.3915 50.2928H27.72Z" fill="white"/>
<path d="M66.0865 42.9958C66.0865 44.2926 65.0799 45.3439 63.8383 45.3439C62.5966 45.3439 61.5901 44.2926 61.5901 42.9958C61.5901 42.9664 61.5905 42.9372 61.5917 42.908C61.6145 41.6115 62.6397 40.5801 63.8811 40.6043C65.1225 40.6285 66.1101 41.6992 66.0868 42.9958H66.0865Z" fill="#3A1C16"/>
<path d="M63.0467 44.0385L62.3992 43.1747L62.5525 43.0596L63.08 43.7633L65.157 42.0634L65.2784 42.2118L63.0467 44.0385Z" fill="white"/>
</g>
<defs>
<clipPath id="clip0_1012_2817">
<rect width="127" height="96" fill="white"/>
</clipPath>
</defs>
</svg>
